<?xml version="1.0" standalone="no"?>
<!DOCTYPE svg PUBLIC "-//W3C//DTD SVG 1.1//EN" "http://www.w3.org/Graphics/SVG/1.1/DTD/svg11.dtd" >
<svg xmlns="http://www.w3.org/2000/svg" xmlns:xlink="http://www.w3.org/1999/xlink" version="1.1">
<metadata>
Created by FontForge 20170731 at Wed Jul 22 14:08:45 2020
 By Aleksey,,,
Copyright 1996, 1998 DoubleAlex Font Studio. All rights reserved.
</metadata>
<defs>
<font id="RotondaC" horiz-adv-x="909" >
  <font-face 
    font-family="RotondaC"
    font-weight="400"
    font-stretch="normal"
    units-per-em="2048"
    panose-1="0 0 5 0 0 0 0 0 0 0"
    ascent="1606"
    descent="-442"
    x-height="1090"
    cap-height="1458"
    bbox="-92 -442.027 2144 1860"
    underline-thickness="102"
    underline-position="-307"
    unicode-range="U+0020-2265"
  />
<missing-glyph horiz-adv-x="2048" 
 />
    <glyph glyph-name=".notdef" horiz-adv-x="2048" 
 />
    <glyph glyph-name=".null" horiz-adv-x="0" 
 />
    <glyph glyph-name="nonmarkingreturn" horiz-adv-x="682" 
 />
    <glyph glyph-name="space" unicode=" " horiz-adv-x="512" 
 />
    <glyph glyph-name="space" unicode="&#xa0;" horiz-adv-x="512" 
 />
    <glyph glyph-name="exclam" unicode="!" horiz-adv-x="606" 
d="M213 487v887q0 44 24.5 70t65.5 26t65.5 -26t24.5 -70v-887q0 -44 -24.5 -70t-65.5 -26t-65.5 26t-24.5 70zM199 92q0 43 30.5 74t73.5 31t74 -31t31 -74t-31 -73.5t-74 -30.5t-73.5 30.5t-30.5 73.5z" />
    <glyph glyph-name="quotedbl" unicode="&#x22;" horiz-adv-x="684" 
d="M403 1104v278q0 40 21.5 64t62.5 24t62.5 -24t21.5 -64v-278q0 -40 -21.5 -64t-62.5 -24t-62.5 24t-21.5 64zM113 1104v278q0 40 21.5 64t62.5 24t62.5 -24t21.5 -64v-278q0 -40 -21.5 -64t-62.5 -24t-62.5 24t-21.5 64z" />
    <glyph glyph-name="numbersign" unicode="#" horiz-adv-x="1097" 
d="M780 442l-53 -381q-5 -37 -22.5 -55t-55.5 -18q-35 0 -52 19.5t-17 49.5q0 21 10 86l41 299h-244l-53 -381q-5 -37 -22.5 -55t-55.5 -18q-35 0 -52.5 19.5t-17.5 49.5q0 15 11 86l41 299h-125q-37 0 -60.5 17.5t-23.5 50.5q0 34 23.5 51t60.5 17h143l43 303h-125
q-37 0 -60.5 17.5t-23.5 49.5q0 33 23.5 50.5t60.5 17.5h143l54 381q5 37 22.5 55t55.5 18q35 0 52 -19.5t17 -49.5q0 -21 -10 -86l-41 -299h244l53 381q5 37 22.5 55t55.5 18q35 0 52 -19.5t17 -49.5q0 -21 -10 -86l-41 -299h125q37 0 60.5 -17.5t23.5 -50.5
q0 -34 -23 -50.5t-61 -16.5h-143l-43 -303h125q37 0 60.5 -17.5t23.5 -50.5t-23.5 -50.5t-60.5 -17.5h-144zM649 578l43 303h-243l-43 -303h243z" />
    <glyph glyph-name="dollar" unicode="$" horiz-adv-x="985" 
d="M446 899v416q-87 -11 -141.5 -67t-54.5 -140q0 -79 50 -126t146 -83zM446 143v568q-44 15 -63 21.5t-60 22.5t-61 27t-54 31t-51 38t-39.5 45t-33.5 55.5t-19 65.5t-8 79q0 62 27 124t75 115t123 90t164 45v97q0 19 11.5 31t31.5 12t31.5 -12t11.5 -31v-97
q126 -9 220 -58t94 -112q0 -33 -22.5 -56t-55.5 -23q-29 0 -59.5 19t-75 43t-101.5 32v-449h1l1 -1h1h1l1 -1h1h1l1 -1h1l1 -1h1q160 -57 229 -101q164 -104 170 -297v-15q0 -172 -109.5 -300.5t-300.5 -152.5v-105q0 -19 -11.5 -31t-31.5 -12t-31.5 12t-11.5 31v97
q-101 0 -195.5 27t-151 69.5t-56.5 85.5q0 35 19.5 60.5t52.5 25.5q24 0 58.5 -17.5t67 -39t88 -39t117.5 -17.5zM532 680v-526q102 22 160 99t58 187q0 93 -57 147t-161 93z" />
    <glyph glyph-name="percent" unicode="%" horiz-adv-x="1517" 
d="M397 889q47 0 82.5 21t55 56t29 75t9.5 83t-9.5 83t-29 75.5t-55 56.5t-82.5 21t-82.5 -21t-55 -56.5t-29 -75.5t-9.5 -83t9.5 -83t29 -75t55 -56t82.5 -21zM1120 -12q-99 0 -171 49t-106 126.5t-34 170.5t34 170.5t106 126.5t171 49t171 -49t106.5 -126.5t34.5 -170.5
t-34.5 -170.5t-106.5 -126.5t-171 -49zM1120 98q47 0 82.5 21t55 56.5t29 75.5t9.5 83t-9.5 83t-29 75t-55 56t-82.5 21t-82.5 -21t-55 -56t-29 -75t-9.5 -83t9.5 -83t29 -75.5t55 -56.5t82.5 -21zM397 778q-99 0 -171 49t-106 126.5t-34 170.5t34 170.5t106 126.5t171 49
t171 -49t106.5 -126.5t34.5 -170.5t-34.5 -170.5t-106.5 -126.5t-171 -49zM428 119l545 1306q26 62 71 62q34 0 53 -17t19 -38q0 -27 -29 -93l-544 -1306q-14 -33 -31.5 -47.5t-44.5 -14.5q-32 0 -50 17t-18 39q0 23 29 92z" />
    <glyph glyph-name="ampersand" unicode="&#x26;" horiz-adv-x="1366" 
d="M651 854l326 -385l12 16q31 42 76.5 116t72.5 106t54 32q33 0 54.5 -16t21.5 -45q0 -99 -191 -328l178 -211q37 -43 37 -78q0 -32 -21 -52.5t-52 -20.5q-45 0 -70 32l-176 203q-187 -235 -451 -235q-121 0 -221.5 49t-163.5 147t-63 228q0 91 21 160.5t67 126t99 98
t138 92.5q-161 165 -161 285q0 152 98 224t258 72q131 0 225 -73.5t94 -184.5q0 -67 -21.5 -123t-62 -99.5t-81 -73.5t-97.5 -62zM418 1178q0 -29 21.5 -67t44 -65t69.5 -79q192 110 192 215q0 69 -49 107t-116 38q-70 0 -116 -38.5t-46 -110.5zM254 432q0 -121 73 -198.5
t212 -77.5q95 0 171.5 42t161.5 144l-372 430q-138 -79 -192 -157.5t-54 -182.5z" />
    <glyph glyph-name="quotesingle" unicode="'" horiz-adv-x="417" 
d="M125 1104v278q0 40 21.5 64t62.5 24t62.5 -24t21.5 -64v-278q0 -40 -21.5 -64t-62.5 -24t-62.5 24t-21.5 64z" />
    <glyph glyph-name="parenleft" unicode="(" horiz-adv-x="493" 
d="M133 651q0 211 31 412.5t88 351.5q34 92 90 92q35 0 53.5 -17t18.5 -42q0 -11 -3 -24.5t-6 -24t-9.5 -29.5t-10.5 -31q-84 -266 -84 -688t84 -688q4 -12 10.5 -31t9.5 -29t6 -23.5t3 -24.5q0 -25 -18.5 -42.5t-53.5 -17.5q-56 0 -90 92q-57 150 -88 351.5t-31 412.5z" />
    <glyph glyph-name="parenright" unicode=")" horiz-adv-x="493" 
d="M360 651q0 -211 -31 -413t-87 -351q-34 -92 -90 -92q-35 0 -53.5 17.5t-18.5 42.5q0 14 3.5 28.5t13 41.5t12.5 38q84 266 84 688t-84 688q-4 12 -10.5 31t-9.5 29.5t-6 24t-3 24.5q0 25 18.5 42t53.5 17q56 0 90 -92q56 -149 87 -351t31 -413z" />
    <glyph glyph-name="asterisk" unicode="*" horiz-adv-x="798" 
d="M307 1108l-182 76q-30 12 -38.5 26.5t-8.5 38.5q0 28 21 49t51 21q23 0 52 -19t74.5 -57.5t71.5 -56.5q0 39 -11 113.5t-11 99.5q0 30 19.5 50.5t53.5 20.5t54 -20.5t20 -50.5q0 -25 -11 -99.5t-11 -113.5q26 18 71.5 56.5t74.5 57.5t52 19q30 0 51 -21t21 -49
q0 -24 -8.5 -38.5t-38.5 -26.5l-182 -76l182 -76q30 -12 38.5 -26.5t8.5 -38.5q0 -28 -21 -49t-51 -21q-23 0 -52 19t-74.5 57.5t-71.5 56.5q0 -39 11 -113.5t11 -99.5q0 -30 -20 -51t-54 -21t-53.5 20.5t-19.5 51.5q0 25 11 99.5t11 113.5q-26 -18 -71.5 -56.5t-74.5 -57.5
t-52 -19q-30 0 -51 21t-21 49q0 24 8.5 38.5t38.5 26.5z" />
    <glyph glyph-name="plus" unicode="+" horiz-adv-x="1228" 
d="M530 602v346q0 40 21.5 64t62.5 24t62.5 -24t21.5 -64v-346h346q40 0 64.5 -21.5t24.5 -62.5t-24.5 -62.5t-64.5 -21.5h-346v-346q0 -40 -21.5 -64t-62.5 -24t-62.5 24t-21.5 64v346h-346q-40 0 -64 21.5t-24 62.5t24 62.5t64 21.5h346z" />
    <glyph glyph-name="comma" unicode="," horiz-adv-x="512" 
d="M68 -104l114 225q19 36 40 56t57 20q33 0 57 -22.5t24 -55.5q0 -31 -22 -76l-115 -225q-19 -37 -39.5 -56.5t-56.5 -19.5q-33 0 -57.5 22.5t-24.5 55.5q0 29 23 76z" />
    <glyph glyph-name="hyphen" unicode="-" horiz-adv-x="720" 
d="M571 471h-421q-32 0 -55 23t-23 55t23 55t55 23h421q32 0 55 -23t23 -55t-23 -55t-55 -23z" />
    <glyph glyph-name="hyphen" unicode="&#xad;" horiz-adv-x="720" 
d="M571 471h-421q-32 0 -55 23t-23 55t23 55t55 23h421q32 0 55 -23t23 -55t-23 -55t-55 -23z" />
    <glyph glyph-name="period" unicode="." horiz-adv-x="512" 
d="M152 92q0 43 30.5 74t73.5 31t73.5 -31t30.5 -74t-30.5 -73.5t-73.5 -30.5t-73.5 30.5t-30.5 73.5z" />
    <glyph glyph-name="slash" unicode="/" horiz-adv-x="833" 
d="M70 154l559 1255q26 61 84 61q36 0 58 -20t22 -55q0 -25 -29 -90l-559 -1256q-26 -61 -84 -61q-36 0 -58 20t-22 55q0 26 29 91z" />
    <glyph glyph-name="zero" unicode="0" horiz-adv-x="1097" 
d="M68 729q0 172 37.5 313t103 234t153 143.5t187.5 50.5t187.5 -50.5t153 -143.5t103 -234t37.5 -313t-37.5 -313t-103 -234t-153 -143.5t-187.5 -50.5t-187.5 50.5t-153 143.5t-103 234t-37.5 313zM260 729q0 -292 80.5 -439t208.5 -147t208.5 147t80.5 439t-80.5 439
t-208.5 147t-208.5 -147t-80.5 -439z" />
    <glyph glyph-name="one" unicode="1" horiz-adv-x="720" 
d="M336 84v1219h-189q-32 0 -54.5 22.5t-22.5 54.5t22.5 55t54.5 23h314q30 0 42.5 -9t12.5 -40v-1325q0 -44 -24.5 -70t-65.5 -26t-65.5 26t-24.5 70z" />
    <glyph glyph-name="two" unicode="2" horiz-adv-x="1097" 
d="M373 156h553q32 0 55 -23t23 -55t-23 -55t-55 -23h-707q-51 0 -74.5 22.5t-23.5 51.5q0 28 39 82l504 673q106 144 106 258q0 99 -66 163.5t-165 64.5q-126 0 -196.5 -93.5t-70.5 -236.5q0 -44 -22.5 -63t-56.5 -19q-89 0 -89 111q0 92 31 173.5t88 145t146.5 100.5
t199.5 37q175 0 284.5 -107.5t109.5 -254.5q0 -78 -19.5 -148t-81.5 -153z" />
    <glyph glyph-name="three" unicode="3" horiz-adv-x="1097" 
d="M975 430q0 -134 -62.5 -236t-167 -154t-235.5 -52q-86 0 -160 24.5t-121.5 62t-81.5 84t-48.5 88.5t-14.5 77q0 46 21.5 73t54.5 27q39 0 61.5 -22.5t38.5 -71.5q63 -187 246 -187q120 0 198 78.5t78 192.5q0 272 -254 272q-53 0 -81.5 21t-28.5 57q0 31 21.5 49.5
t72.5 28.5q109 25 157 80t48 155q0 105 -57 171.5t-150 66.5q-68 0 -114.5 -31t-67 -76.5t-25.5 -105.5q-2 -29 -11 -47.5t-23.5 -25.5t-25 -9t-26.5 -2q-37 0 -59.5 24t-22.5 60q0 153 104 260.5t279 107.5q170 0 274.5 -109t104.5 -267q0 -94 -44 -176.5t-128 -133.5
q120 -36 185 -131t65 -223z" />
    <glyph glyph-name="four" unicode="4" horiz-adv-x="1097" 
d="M684 375h-582q-43 0 -60 16.5t-17 46.5q0 33 45 105l516 846q27 45 60 63t81 18q63 0 100 -36.5t37 -112.5v-791h92q32 0 55 -22.5t23 -54.5t-23 -55t-55 -23h-92v-291q0 -44 -24.5 -70t-65.5 -26t-65.5 26t-24.5 70v291zM250 530h434v748h-4z" />
    <glyph glyph-name="five" unicode="5" horiz-adv-x="1097" 
d="M467 1303l-59 -396q78 41 192 41q110 0 196.5 -63.5t131.5 -163.5t45 -215q0 -237 -126.5 -377.5t-346.5 -140.5q-86 0 -165.5 25t-131 62.5t-82.5 78.5t-31 75q0 31 17 54.5t49 23.5q20 0 44 -15.5t51 -37.5t60 -44.5t83 -38t108 -15.5q126 0 202 91.5t76 223.5
q0 137 -63 223t-189 86q-58 0 -108.5 -14t-85 -27.5t-53.5 -13.5q-31 0 -46.5 15.5t-15.5 39.5q0 16 14 121l76 510q4 27 19.5 37t48.5 10h506q32 0 55 -23t23 -55t-23 -54.5t-55 -22.5h-416z" />
    <glyph glyph-name="six" unicode="6" horiz-adv-x="1097" 
d="M545 -12q-191 0 -315 141.5t-124 359.5q0 123 32.5 244t82.5 218t119.5 190.5t135 160.5t138.5 128q48 40 84 40q25 0 49.5 -23t24.5 -61q0 -21 -15.5 -40.5t-56.5 -55.5q-94 -84 -164 -172t-149 -233h4q111 57 232 57q115 0 200 -67.5t126.5 -174.5t41.5 -237
q0 -131 -57 -239.5t-160 -172t-229 -63.5zM287 471q0 -88 26 -157.5t85 -113.5t145 -44t145 44t85 113.5t26 157.5q0 150 -63 232.5t-193 82.5q-126 0 -191 -89.5t-65 -225.5z" />
    <glyph glyph-name="seven" unicode="7" horiz-adv-x="1024" 
d="M750 1303h-615q-32 0 -55 22.5t-23 54.5t23 55t55 23h739q93 0 93 -57q0 -31 -35 -109l-545 -1239q-29 -65 -108 -65q-23 0 -45.5 18.5t-22.5 50.5q0 30 29 97l510 1144v5z" />
    <glyph glyph-name="eight" unicode="8" horiz-adv-x="1097" 
d="M176 1137q0 65 21 120t57 93.5t84 66t101.5 40.5t109.5 13t109.5 -13t101.5 -40.5t84 -66t57 -93.5t21 -120q0 -114 -45 -187.5t-146 -136.5q124 -28 194 -130t70 -234q0 -90 -30 -172.5t-85.5 -147t-141 -103t-189.5 -38.5q-137 0 -241 66.5t-155 170t-51 224.5
q0 132 70.5 234t194.5 130q-101 63 -146 136.5t-45 187.5zM344 1102q0 -96 55 -155.5t150 -59.5t150 59.5t55 155.5q0 94 -55 153.5t-150 59.5t-150 -59.5t-55 -153.5zM295 440q0 -136 74 -216.5t180 -80.5t180 80.5t74 216.5q0 120 -67 205.5t-187 85.5t-187 -85.5
t-67 -205.5z" />
    <glyph glyph-name="nine" unicode="9" horiz-adv-x="1097" 
d="M553 1470q191 0 314.5 -141.5t123.5 -359.5q0 -123 -32.5 -243.5t-82 -217.5t-119.5 -190.5t-135.5 -160.5t-138.5 -128q-49 -41 -84 -41q-25 0 -49 23t-24 61q0 21 15 40.5t56 55.5q95 84 165 172.5t149 232.5h-4q-111 -57 -232 -57q-115 0 -200.5 67.5t-127 174.5
t-41.5 237q0 131 57.5 239.5t160 172t229.5 63.5zM811 987q0 88 -26 157.5t-85 114t-145 44.5t-145 -44.5t-85 -114t-26 -157.5q0 -150 63 -232.5t193 -82.5q126 0 191 89.5t65 225.5z" />
    <glyph glyph-name="colon" unicode=":" horiz-adv-x="512" 
d="M152 92q0 43 30.5 74t73.5 31t73.5 -31t30.5 -74t-30.5 -73.5t-73.5 -30.5t-73.5 30.5t-30.5 73.5zM152 780q0 43 30.5 74t73.5 31t73.5 -31t30.5 -74t-30.5 -73.5t-73.5 -30.5t-73.5 30.5t-30.5 73.5z" />
    <glyph glyph-name="semicolon" unicode=";" horiz-adv-x="512" 
d="M68 -104l114 225q19 36 40 56t57 20q33 0 57 -22.5t24 -55.5q0 -31 -22 -76l-115 -225q-19 -37 -39.5 -56.5t-56.5 -19.5q-33 0 -57.5 22.5t-24.5 55.5q0 29 23 76zM152 780q0 43 30.5 74t73.5 31t73.5 -31t30.5 -74t-30.5 -73.5t-73.5 -30.5t-73.5 30.5t-30.5 73.5z" />
    <glyph glyph-name="less" unicode="&#x3c;" horiz-adv-x="1228" 
d="M307 518l762 -377q15 -8 24 -13.5t20 -15t16.5 -22t5.5 -27.5q0 -32 -20.5 -53.5t-47.5 -21.5q-20 0 -100 37l-799 399q-40 20 -57 41.5t-17 52.5t17 52.5t57 41.5l799 400q80 37 100 37q27 0 47.5 -22t20.5 -54q0 -15 -5.5 -27.5t-16.5 -22t-20 -15t-24 -13.5z" />
    <glyph glyph-name="equal" unicode="=" horiz-adv-x="1228" 
d="M1044 647h-860q-40 0 -64 21.5t-24 62.5t24 62.5t64 21.5h860q40 0 64.5 -21.5t24.5 -62.5t-24.5 -62.5t-64.5 -21.5zM1044 221h-860q-40 0 -64 21.5t-24 62.5t24 62.5t64 21.5h860q40 0 64.5 -21.5t24.5 -62.5t-24.5 -62.5t-64.5 -21.5z" />
    <glyph glyph-name="greater" unicode="&#x3e;" horiz-adv-x="1228" 
d="M160 141l762 377l-762 377q-15 8 -24 13.5t-20 15t-16.5 22t-5.5 27.5q0 32 20.5 54t47.5 22q20 0 100 -37l799 -400q40 -20 57 -41.5t17 -52.5t-17 -52.5t-57 -41.5l-799 -399q-80 -37 -100 -37q-27 0 -47.5 21.5t-20.5 53.5q0 15 5.5 27.5t16.5 22t20 15t24 13.5z" />
    <glyph glyph-name="question" unicode="?" 
d="M528 692v-205q0 -44 -24.5 -70t-65.5 -26t-65.5 26t-24.5 70v232q0 27 0.5 40.5t5.5 29.5t13 23t25 16t40 14.5t60 13.5q188 38 188 221q0 103 -67 164.5t-171 61.5q-87 0 -146 -38t-91 -130q-13 -38 -32 -53t-48 -15q-37 0 -63 26.5t-25 67.5q6 130 128 219.5t271 89.5
q187 0 311.5 -107t124.5 -269q0 -161 -92.5 -265t-251.5 -137zM334 92q0 43 30.5 74t73.5 31t74 -31t31 -74t-31 -73.5t-74 -30.5t-73.5 30.5t-30.5 73.5z" />
    <glyph glyph-name="at" unicode="@" horiz-adv-x="1638" 
d="M545 631q0 -80 49 -132.5t119 -52.5q58 0 106.5 30t79.5 75.5t52.5 100.5t30.5 103t9 85q0 147 -153 147q-70 0 -128 -33.5t-93 -87t-53.5 -114.5t-18.5 -121zM1225 1012l-127 -439q-17 -62 -17 -84q0 -59 58 -59q65 0 127.5 57t102.5 152t40 197q0 153 -80 268.5
t-206 173t-275 57.5q-130 0 -245.5 -47.5t-197 -128.5t-129 -193t-47.5 -237q0 -175 83.5 -314t229 -215.5t324.5 -76.5q81 0 152 16.5t117.5 41.5t88.5 54.5t70 54.5t58.5 41.5t56.5 16.5q22 0 36.5 -13t14.5 -34q0 -42 -58 -96.5t-144 -102.5t-197.5 -81t-208.5 -33
q-213 0 -391.5 97.5t-282.5 268t-104 375.5q0 153 61.5 291t166 236t247 156t299.5 58q193 0 356.5 -76t262 -217t98.5 -317q0 -114 -35.5 -211t-91 -161.5t-124.5 -110t-134.5 -66t-122.5 -20.5q-124 0 -144 117h-4q-45 -50 -108 -83.5t-127 -33.5q-131 0 -220 94t-89 227
q0 98 34 193t93 170t147 121.5t188 46.5q166 0 240 -154l27 82q10 33 29.5 46t52.5 13q28 0 46.5 -11t18.5 -34q0 -16 -16 -73z" />
    <glyph glyph-name="A" unicode="A" horiz-adv-x="1253" 
d="M289 317l-94 -262q-24 -67 -89 -67q-37 0 -61.5 20.5t-24.5 54.5q0 16 25 91l453 1206q21 53 50.5 81.5t78.5 28.5t78.5 -28.5t50.5 -81.5l452 -1206q25 -75 25 -91q0 -34 -24.5 -54.5t-61.5 -20.5q-64 0 -88 67l-94 262h-676zM909 473l-280 789h-4l-281 -789h565z" />
    <glyph glyph-name="B" unicode="B" horiz-adv-x="1099" 
d="M299 1303v-461h205q112 0 176.5 66t64.5 169t-59.5 164.5t-175.5 61.5h-211zM299 694v-538h254q133 0 219 75t86 195q0 116 -80 192t-217 76h-262zM119 98v1262q0 44 23.5 71t72.5 27h317q93 0 170 -31t124.5 -81t73.5 -111t26 -125q0 -118 -56 -204.5t-147 -114.5v-5
q134 -14 224.5 -115.5t90.5 -244.5q0 -87 -32 -163.5t-91 -135.5t-150.5 -93t-203.5 -34h-346q-49 0 -72.5 27t-23.5 71z" />
    <glyph glyph-name="C" unicode="C" horiz-adv-x="1214" 
d="M256 729q0 -86 16.5 -168.5t52 -158.5t86.5 -133.5t126 -91.5t165 -34q74 0 142 20.5t108 45t79 45t63 20.5q32 0 51.5 -23t19.5 -61q0 -72 -139 -137t-324 -65q-123 0 -228 40.5t-179.5 111t-127.5 165t-78.5 202t-25.5 222.5t25.5 222.5t79 202t129.5 165t183 111
t233 40.5q91 0 173.5 -22.5t135 -56t83 -69.5t30.5 -65q0 -36 -20.5 -61t-53.5 -25q-22 0 -45.5 15t-48.5 36t-57 42t-83 36t-114 15q-94 0 -171.5 -34.5t-129.5 -91.5t-88 -133.5t-52 -158.5t-16 -168z" />
    <glyph glyph-name="D" unicode="D" horiz-adv-x="1290" 
d="M129 98v1262q0 44 23.5 71t72.5 27h355q127 0 233.5 -38t182 -105t128.5 -158t78 -197t25 -223q0 -218 -73.5 -384t-215.5 -259.5t-334 -93.5h-379q-49 0 -72.5 27t-23.5 71zM309 1303v-1147h258q99 0 179 32t133 86.5t88.5 130t51 158t15.5 174.5t-16.5 174t-53.5 154.5
t-91.5 124.5t-136 82.5t-181.5 30.5h-246z" />
    <glyph glyph-name="E" unicode="E" 
d="M299 645v-477h434q40 0 64 -21.5t24 -62.5t-24 -62.5t-64 -21.5h-518q-49 0 -72.5 27t-23.5 71v1262q0 44 23.5 71t72.5 27h518q40 0 64 -21.5t24 -62.5t-24 -62.5t-64 -21.5h-434v-477h395q40 0 64 -21.5t24 -62.5t-24 -62.5t-64 -21.5h-395z" />
    <glyph glyph-name="F" unicode="F" horiz-adv-x="833" 
d="M299 645v-561q0 -44 -24.5 -70t-65.5 -26t-65.5 26t-24.5 70v1276q0 44 23.5 71t72.5 27h512q40 0 64 -21.5t24 -62.5t-24 -62.5t-64 -21.5h-428v-477h379q40 0 64 -21.5t24 -62.5t-24 -62.5t-64 -21.5h-379z" />
    <glyph glyph-name="G" unicode="G" horiz-adv-x="1366" 
d="M1145 668h-254q-40 0 -64 21.5t-24 62.5t24 62.5t64 21.5h303q71 0 101 -32.5t30 -115.5q0 -79 -8.5 -150t-28.5 -142.5t-51.5 -131t-81 -111.5t-113 -88t-150 -56.5t-190.5 -20.5q-123 0 -227.5 40.5t-179.5 111t-128 165t-78.5 202t-25.5 222.5q0 146 41 276.5
t120 235.5t209.5 167t295.5 62q106 0 203.5 -25.5t160 -62t99.5 -76t37 -69.5q0 -36 -24 -61t-62 -25q-24 0 -53 17t-61.5 41t-73 48t-103 41t-135.5 17q-95 0 -173.5 -34.5t-131 -91.5t-88.5 -133.5t-52 -158.5t-16 -168q0 -87 15.5 -168.5t52 -158t89.5 -133.5t133 -91.5
t179 -34.5q101 0 184 40.5t133 105.5t76.5 141t26.5 152v86z" />
    <glyph glyph-name="H" unicode="H" horiz-adv-x="1366" 
d="M299 653v-557q0 -53 -24 -80.5t-66 -27.5t-66 27.5t-24 80.5v1266q0 53 24 80.5t66 27.5t66 -27.5t24 -80.5v-553h768v553q0 53 24 80.5t66 27.5t66 -27.5t24 -80.5v-1266q0 -53 -24 -80.5t-66 -27.5t-66 27.5t-24 80.5v557h-768z" />
    <glyph glyph-name="I" unicode="I" horiz-adv-x="417" 
d="M299 1374v-1290q0 -44 -24.5 -70t-65.5 -26t-65.5 26t-24.5 70v1290q0 44 24.5 70t65.5 26t65.5 -26t24.5 -70z" />
    <glyph glyph-name="J" unicode="J" horiz-adv-x="757" 
d="M459 352v1022q0 44 24.5 70t65.5 26t65.5 -26t24.5 -70v-1003q0 -383 -354 -383q-53 0 -120 18t-123 57.5t-56 88.5q0 34 19.5 54.5t51.5 20.5q27 0 51 -13t42 -29t57 -29t92 -13q160 0 160 209z" />
    <glyph glyph-name="K" unicode="K" horiz-adv-x="1175" 
d="M299 694v-610q0 -44 -24.5 -70t-65.5 -26t-65.5 26t-24.5 70v1290q0 44 24.5 70t65.5 26t65.5 -26t24.5 -70v-532l625 571q21 20 32.5 29.5t30 18.5t35.5 9q34 0 56 -21t22 -56q0 -32 -9 -48.5t-28 -33.5l-598 -539l653 -631q37 -34 37 -73q0 -33 -26 -56.5t-62 -23.5
q-47 0 -88 39z" />
    <glyph glyph-name="L" unicode="L" horiz-adv-x="796" 
d="M299 1374v-1206h385q40 0 64 -21.5t24 -62.5t-24 -62.5t-64 -21.5h-469q-49 0 -72.5 27t-23.5 71v1276q0 44 24.5 70t65.5 26t65.5 -26t24.5 -70z" />
    <glyph glyph-name="M" unicode="M" horiz-adv-x="1708" 
d="M410 1237l-170 -1171q-10 -78 -97 -78q-40 0 -62 25t-22 67q0 18 11 82l198 1171q11 72 49.5 104.5t92.5 32.5q55 0 85.5 -21.5t45.5 -72.5l311 -1067h4l311 1067q15 51 45.5 72.5t85.5 21.5q54 0 92.5 -32.5t49.5 -104.5l198 -1171q11 -64 11 -82q0 -42 -22 -67t-62 -25
q-87 0 -97 78l-170 1171h-4l-348 -1176q-22 -73 -92 -73t-92 73l-348 1176h-4z" />
    <glyph glyph-name="N" unicode="N" horiz-adv-x="1366" 
d="M299 1141v-1057q0 -44 -24.5 -70t-65.5 -26t-65.5 26t-24.5 70v1280q0 106 82 106q39 0 64 -19t63 -75l737 -1059h4v1057q0 44 24.5 70t65.5 26t65.5 -26t24.5 -70v-1280q0 -106 -82 -106q-39 0 -64 19t-63 75l-737 1059h-4z" />
    <glyph glyph-name="O" unicode="O" horiz-adv-x="1404" 
d="M256 729q0 -87 14.5 -168.5t48.5 -158t84 -133.5t127 -91.5t172 -34.5t172 34.5t127.5 91.5t84.5 133.5t48.5 158t14.5 168.5t-14.5 168.5t-48.5 158t-84.5 133.5t-127.5 91.5t-172 34.5t-172 -34.5t-127 -91.5t-84 -133.5t-48.5 -158t-14.5 -168.5zM63 729
q0 115 26 222.5t79.5 202t128.5 165t179.5 111t225.5 40.5t225.5 -40.5t179.5 -111t128.5 -165t79.5 -202t26 -222.5t-26 -222.5t-79.5 -202t-128.5 -165t-179.5 -111t-225.5 -40.5t-225.5 40.5t-179.5 111t-128.5 165t-79.5 202t-26 222.5z" />
    <glyph glyph-name="P" unicode="P" horiz-adv-x="1062" 
d="M299 545v-461q0 -44 -24.5 -70t-65.5 -26t-65.5 26t-24.5 70v1276q0 44 23.5 71t72.5 27h356q214 0 343.5 -131.5t129.5 -327.5q0 -191 -133.5 -322.5t-332.5 -131.5h-279zM299 1303v-603h266q131 0 215 86t84 213q0 57 -17 108.5t-51.5 96.5t-96 72t-142.5 27h-258z" />
    <glyph glyph-name="Q" unicode="Q" horiz-adv-x="1402" 
d="M993 260l-121 119q-36 36 -36 67q0 34 22 58t57 24q36 0 68 -32l100 -99q66 144 66 332q0 87 -14.5 168.5t-48.5 158t-84.5 133.5t-127.5 91.5t-172 34.5t-172 -34.5t-127 -91.5t-84 -133.5t-48.5 -158t-14.5 -168.5t14.5 -168.5t48.5 -158t84 -133.5t127 -91.5
t172 -34.5q177 0 291 117zM1253 4l-143 141q-163 -157 -408 -157q-121 0 -225.5 40.5t-179.5 111t-128.5 165t-79.5 202t-26 222.5t26 222.5t79.5 202t128.5 165t179.5 111t225.5 40.5t225.5 -40.5t179.5 -111t128.5 -165t79.5 -202t26 -222.5q0 -263 -127 -461l152 -149
q35 -35 35 -72q0 -30 -22 -53t-56 -23q-37 0 -70 33z" />
    <glyph glyph-name="R" unicode="R" horiz-adv-x="1062" 
d="M1020 57q0 -29 -24 -49t-58 -20q-46 0 -82 41l-557 610v-555q0 -44 -24.5 -70t-65.5 -26t-65.5 26t-24.5 70v1276q0 44 23.5 71t72.5 27h334q86 0 166.5 -28.5t142.5 -78.5t99.5 -124.5t37.5 -161.5q0 -107 -31 -187.5t-86.5 -128.5t-125.5 -72t-154 -26l-78 -2l465 -510
q35 -38 35 -82zM815 1053q0 105 -75.5 177.5t-198.5 72.5h-242v-519h246q141 0 205.5 64t64.5 205z" />
    <glyph glyph-name="S" unicode="S" horiz-adv-x="985" 
d="M487 1470q138 0 248.5 -50.5t110.5 -119.5q0 -33 -22.5 -56t-55.5 -23q-26 0 -54 14.5t-52 32.5t-72 32.5t-109 14.5q-101 0 -166 -57.5t-65 -149.5q0 -46 19.5 -83t52.5 -61.5t77.5 -46.5t94 -38t102.5 -36.5t102.5 -41.5t94 -53.5t77.5 -72t52.5 -97.5t19.5 -129
q0 -123 -56 -226.5t-170 -169t-267 -65.5q-97 0 -190 22t-154.5 63.5t-61.5 90.5q0 39 20 65.5t56 26.5q19 0 52 -17.5t67.5 -39t92 -39t120.5 -17.5q136 0 217.5 85.5t81.5 211.5q0 55 -23.5 97.5t-64 70t-92.5 50t-109.5 42t-114.5 40.5t-109 51t-92.5 69t-64 99.5
t-23.5 136.5q0 65 30 130.5t83 120t136.5 89t180.5 34.5z" />
    <glyph glyph-name="T" unicode="T" 
d="M365 84v1206h-273q-40 0 -64 21.5t-24 62.5t24 62.5t64 21.5h725q40 0 64 -21.5t24 -62.5t-24 -62.5t-64 -21.5h-272v-1206q0 -44 -24.5 -70t-65.5 -26t-65.5 26t-24.5 70z" />
    <glyph glyph-name="U" unicode="U" horiz-adv-x="1368" 
d="M119 578v796q0 44 24.5 70t65.5 26t65.5 -26t24.5 -70v-866q0 -170 105.5 -267.5t279.5 -97.5t279.5 97.5t105.5 267.5v866q0 44 24.5 70t65.5 26t65.5 -26t24.5 -70v-796q0 -102 -18.5 -187t-49.5 -145t-76 -106.5t-93.5 -74.5t-106.5 -46t-111 -24.5t-110 -6.5
t-110 6.5t-111 24.5t-106.5 46t-93.5 74.5t-76 106.5t-49.5 145t-18.5 187z" />
    <glyph glyph-name="V" unicode="V" horiz-adv-x="1138" 
d="M571 291l369 1063q13 34 18 46.5t18.5 33.5t31 28.5t43.5 7.5q35 0 57 -22t22 -51q0 -33 -12 -70l-444 -1241q-17 -50 -39.5 -74t-65.5 -24q-42 0 -64.5 24t-39.5 74l-445 1241q-12 37 -12 70q0 29 22.5 51t57.5 22q26 0 43.5 -7.5t31 -28.5t18.5 -33.5t18 -46.5
l368 -1063h4z" />
    <glyph glyph-name="W" unicode="W" horiz-adv-x="1708" 
d="M426 221l336 1178q11 39 33.5 55t58.5 16t58.5 -16t33.5 -55l336 -1178h4l191 1165q14 84 98 84q37 0 59.5 -23t22.5 -58q0 -39 -10 -93l-222 -1190q-11 -55 -39 -86.5t-90 -31.5q-57 0 -88.5 23.5t-52.5 94.5l-299 1070h-4l-299 -1070q-21 -71 -52.5 -94.5t-88.5 -23.5
q-62 0 -90 31.5t-39 86.5l-222 1190q-10 54 -10 93q0 35 22.5 58t59.5 23q84 0 98 -84l191 -1165h4z" />
    <glyph glyph-name="X" unicode="X" horiz-adv-x="1216" 
d="M608 641l-418 -596q-26 -35 -45.5 -46t-44.5 -11q-32 0 -57 22t-25 53t29 74l457 645l-381 539q-29 42 -29 74q0 33 23.5 54t56.5 21q26 0 47 -11.5t45 -45.5l342 -500l342 500q24 34 45 45.5t47 11.5q33 0 56.5 -21t23.5 -54t-28 -74l-381 -539l456 -645q29 -44 29 -74
q0 -31 -25 -53t-57 -22q-25 0 -44.5 11t-45.5 46z" />
    <glyph glyph-name="Y" unicode="Y" horiz-adv-x="1024" 
d="M422 84v600l-391 637q-29 48 -29 76q0 33 23.5 53t58.5 20q56 0 90 -57l338 -551l338 551q34 57 90 57q35 0 58.5 -20t23.5 -53q0 -28 -29 -76l-391 -637v-600q0 -44 -24.5 -70t-65.5 -26t-65.5 26t-24.5 70z" />
    <glyph glyph-name="Z" unicode="Z" horiz-adv-x="1138" 
d="M84 178l750 1125h-662q-40 0 -64 20t-24 57t24.5 57.5t63.5 20.5h797q43 0 68.5 -18.5t25.5 -44.5q0 -30 -9 -53t-36 -62l-752 -1124h735q40 0 64.5 -20.5t24.5 -57.5t-24.5 -57.5t-64.5 -20.5h-845q-107 0 -107 82q0 44 35 96z" />
    <glyph glyph-name="bracketleft" unicode="[" horiz-adv-x="493" 
d="M324 1315v-1327h69q32 0 55 -23t23 -55t-23 -55t-55 -23h-141q-49 0 -72.5 27t-23.5 71v1442q0 44 23.5 71t72.5 27h141q32 0 55 -22.5t23 -54.5t-23 -55t-55 -23h-69z" />
    <glyph glyph-name="backslash" unicode="\" horiz-adv-x="833" 
d="M629 49l-559 1256q-29 65 -29 90q0 35 22 55t58 20q58 0 84 -61l559 -1255q29 -65 29 -91q0 -35 -22 -55t-58 -20q-58 0 -84 61z" />
    <glyph glyph-name="bracketright" unicode="]" horiz-adv-x="493" 
d="M170 -12v1327h-70q-32 0 -54.5 23t-22.5 55t22.5 54.5t54.5 22.5h142q49 0 72.5 -27t23.5 -71v-1442q0 -44 -23.5 -71t-72.5 -27h-142q-32 0 -54.5 23t-22.5 55t22.5 55t54.5 23h70z" />
    <glyph glyph-name="asciicircum" unicode="^" horiz-adv-x="1228" 
d="M614 1290l-321 -596q-31 -59 -50.5 -80.5t-52.5 -21.5q-32 0 -53.5 19t-21.5 48q0 8 2 17t6.5 19.5t8 17t10 19t8.5 16.5l358 638q24 42 47 63t59 21t59.5 -21t47.5 -63l358 -638q2 -4 8.5 -16.5t10 -19t8 -17t6.5 -19.5t2 -17q0 -29 -22 -48t-54 -19q-33 0 -51.5 21
t-50.5 81z" />
    <glyph glyph-name="underscore" unicode="_" horiz-adv-x="1024" 
d="M1024 -256h-1024q-26 0 -42.5 13.5t-16.5 37.5t16.5 37.5t42.5 13.5h1024q26 0 42.5 -13.5t16.5 -37.5t-16.5 -37.5t-42.5 -13.5z" />
    <glyph glyph-name="grave" unicode="`" horiz-adv-x="417" 
d="M289 1262l-236 96q-71 29 -71 76q0 29 20.5 57.5t56.5 28.5q23 0 70 -19l236 -96q71 -29 71 -76q0 -28 -21 -57t-57 -29q-21 0 -69 19z" />
    <glyph glyph-name="a" unicode="a" horiz-adv-x="1056" 
d="M938 84q0 -44 -24.5 -70t-65.5 -26t-65.5 26t-24.5 70v43l-4 4q-112 -143 -301 -143q-76 0 -142.5 19t-119.5 56.5t-84 100t-31 143.5q0 71 22.5 127.5t58.5 94t91.5 65.5t109.5 43t125 23.5t126.5 11t125.5 2.5h25v135q0 67 -51.5 102t-141.5 35q-48 0 -87 -11.5
t-64 -27.5t-45.5 -32t-41.5 -27.5t-42 -11.5q-39 0 -60.5 21t-21.5 52q0 53 60 99t142.5 70t159.5 24q179 0 275 -78.5t96 -228.5v-711zM760 432v103h-39q-76 0 -116 -1.5t-104.5 -7t-99.5 -20.5t-73.5 -39t-55 -64.5t-16.5 -95.5q0 -57 33.5 -95t83 -53.5t112.5 -15.5
q120 0 197.5 75.5t77.5 213.5z" />
    <glyph glyph-name="b" unicode="b" horiz-adv-x="1138" 
d="M289 545q0 -58 9.5 -113t32.5 -108t56 -92.5t85 -64t116 -24.5t116 24.5t85 64t56 92.5t32.5 108t9.5 113t-9.5 112.5t-32.5 107.5t-56 93t-85 64t-116 24t-116 -24t-85 -64t-56 -93t-32.5 -107.5t-9.5 -112.5zM127 84v1290q0 44 24.5 70t65.5 26t65.5 -26t24.5 -70v-420
h4q41 60 117 104t174 44q107 0 196.5 -46.5t147.5 -124t89.5 -177.5t31.5 -209t-31.5 -209t-89.5 -177.5t-147.5 -124t-196.5 -46.5q-213 0 -291 149h-4v-53q0 -44 -24.5 -70t-65.5 -26t-65.5 26t-24.5 70z" />
    <glyph glyph-name="c" unicode="c" 
d="M72 545q0 88 19 169t58.5 152t96.5 123.5t138.5 82.5t178.5 30q134 0 213.5 -39.5t79.5 -97.5q0 -29 -21.5 -52.5t-52.5 -23.5q-28 0 -57.5 14.5t-69 28.5t-92.5 14q-80 0 -142 -36t-97.5 -96t-53.5 -128.5t-18 -140.5t18 -141t53.5 -128.5t97.5 -96t142 -36.5
q55 0 97 15.5t70 31t50 15.5q32 0 51 -20t19 -56q0 -55 -77.5 -98t-209.5 -43q-97 0 -178.5 30t-138.5 82.5t-96.5 123.5t-58.5 152t-19 169z" />
    <glyph glyph-name="d" unicode="d" horiz-adv-x="1138" 
d="M850 545q0 58 -9.5 112.5t-32.5 107.5t-56 93t-85 64t-116 24t-116 -24t-85 -64t-56 -93t-32.5 -107.5t-9.5 -112.5t9.5 -113t32.5 -108t56 -92.5t85 -64t116 -24.5t116 24.5t85 64t56 92.5t32.5 108t9.5 113zM831 84v53h-4q-78 -149 -290 -149q-107 0 -196.5 46.5
t-147.5 124t-89.5 177.5t-31.5 209t31.5 209t89.5 177.5t147.5 124t196.5 46.5q98 0 173.5 -44t116.5 -104h4v420q0 44 25 70t66 26t65.5 -26t24.5 -70v-1290q0 -44 -24.5 -70t-65.5 -26t-66 26t-25 70z" />
    <glyph glyph-name="e" unicode="e" horiz-adv-x="1064" 
d="M911 475h-678q0 -144 87 -238t235 -94q67 0 123 15t91.5 37t63.5 44t50.5 37t40.5 15q26 0 45.5 -21.5t19.5 -58.5q0 -44 -63.5 -96t-167.5 -89.5t-205 -37.5q-126 0 -224 46t-157 125t-89 177t-30 209t34 211.5t96 177.5t155.5 122.5t204.5 45.5q107 0 197.5 -46
t149 -121.5t90.5 -170t32 -193.5q0 -50 -22.5 -73t-78.5 -23zM233 610h598q0 61 -17.5 118.5t-51.5 106.5t-90.5 79.5t-128.5 31.5q-80 1 -141 -27t-96 -78t-53 -107.5t-20 -123.5z" />
    <glyph glyph-name="f" unicode="f" horiz-adv-x="530" 
d="M356 934v-850q0 -44 -24.5 -70t-65.5 -26t-65.5 26t-24.5 70v850h-74q-44 0 -67 20.5t-23 57.5t23 57.5t67 20.5h74v145q0 113 68 174t172 61h55q39 0 70.5 -21t31.5 -56q0 -78 -98 -78h-45q-74 0 -74 -72v-153h113q44 0 67 -20.5t23 -57.5t-23 -57.5t-67 -20.5h-113z
" />
    <glyph glyph-name="g" unicode="g" horiz-adv-x="1138" 
d="M1012 1014v-936q0 -241 -134.5 -380.5t-357.5 -139.5q-91 0 -189.5 30t-163.5 76.5t-65 91.5q0 33 18.5 58.5t57.5 25.5q26 0 63.5 -20t72.5 -43.5t95 -43.5t126 -20q82 0 142 30t92.5 80.5t47 106.5t14.5 119v94h-4q-42 -72 -114 -113.5t-162 -41.5q-148 0 -259 80
t-165.5 204.5t-54.5 272.5t54.5 272.5t165.5 204.5t259 80q83 0 160.5 -41.5t115.5 -95.5h4v49q0 44 28 66t69 22q31 0 57.5 -22.5t26.5 -65.5zM252 545q0 -58 9.5 -113t32.5 -108t56 -92.5t85 -64t116 -24.5t116 24.5t85 64t56 92.5t32.5 108t9.5 113t-9.5 112.5
t-32.5 107.5t-56 93t-85 64t-116 24t-116 -24t-85 -64t-56 -93t-32.5 -107.5t-9.5 -112.5z" />
    <glyph glyph-name="h" unicode="h" horiz-adv-x="1101" 
d="M803 84v594q0 68 -22.5 121.5t-59.5 84.5t-80 46.5t-90 15.5t-90 -15.5t-80 -46.5t-59.5 -84.5t-22.5 -121.5v-594q0 -44 -24.5 -70t-65.5 -26t-65.5 26t-24.5 70v1290q0 44 24.5 70t65.5 26t65.5 -26t24.5 -70v-411l4 -5q113 144 301 144q53 0 104 -13t101.5 -44.5
t88.5 -77.5t61.5 -118t23.5 -161v-604q0 -44 -24.5 -70t-65.5 -26t-65.5 26t-24.5 70z" />
    <glyph glyph-name="i" unicode="i" horiz-adv-x="417" 
d="M299 1006v-922q0 -44 -24.5 -70t-65.5 -26t-65.5 26t-24.5 70v922q0 44 24.5 70t65.5 26t65.5 -26t24.5 -70zM98 1360q0 46 32.5 78t78.5 32t78 -32t32 -78t-32 -78.5t-78 -32.5t-78.5 32.5t-32.5 78.5z" />
    <glyph glyph-name="j" unicode="j" horiz-adv-x="417" 
d="M299 1006v-1352q0 -44 -24.5 -70t-65.5 -26t-65.5 26t-24.5 70v1352q0 44 24.5 70t65.5 26t65.5 -26t24.5 -70zM98 1360q0 46 32.5 78t78.5 32t78 -32t32 -78t-32 -78.5t-78 -32.5t-78.5 32.5t-32.5 78.5z" />
    <glyph glyph-name="k" unicode="k" horiz-adv-x="948" 
d="M119 84v1290q0 44 24.5 70t65.5 26t65.5 -26t24.5 -70v-657l393 330q66 55 103 55q34 0 54.5 -22.5t20.5 -57.5q0 -43 -45 -78l-409 -323l475 -469q25 -25 34 -45.5t9 -47.5q0 -30 -23 -50.5t-53 -20.5q-31 0 -51 11t-53 44l-455 475v-434q0 -44 -24.5 -70t-65.5 -26
t-65.5 26t-24.5 70z" />
    <glyph glyph-name="l" unicode="l" horiz-adv-x="417" 
d="M299 1374v-1290q0 -44 -24.5 -70t-65.5 -26t-65.5 26t-24.5 70v1290q0 44 24.5 70t65.5 26t65.5 -26t24.5 -70z" />
    <glyph glyph-name="m" unicode="m" horiz-adv-x="1708" 
d="M764 84v610q0 117 -62 184.5t-172 67.5q-108 0 -169.5 -67.5t-61.5 -184.5v-610q0 -44 -24.5 -70t-65.5 -26t-65.5 26t-24.5 70v922q0 44 24.5 70t65.5 26t65.5 -26t24.5 -70v-33l4 -4q21 27 39.5 45t51.5 41t79.5 35t104.5 12q190 0 299 -184q64 92 142 138t191 46
q53 0 104 -13t101.5 -44.5t88.5 -77.5t61.5 -118t23.5 -161v-604q0 -44 -24.5 -70t-65.5 -26t-65.5 26t-24.5 70v610q0 118 -61.5 185t-171.5 67q-108 0 -170 -67.5t-62 -184.5v-610q0 -44 -24.5 -70t-65.5 -26t-65.5 26t-24.5 70z" />
    <glyph glyph-name="n" unicode="n" horiz-adv-x="1101" 
d="M119 84v922q0 44 24.5 70t65.5 26t65.5 -26t24.5 -70v-43l4 -5q113 144 301 144q53 0 104 -13t101.5 -44.5t88.5 -77.5t61.5 -118t23.5 -161v-604q0 -44 -24.5 -70t-65.5 -26t-65.5 26t-24.5 70v594q0 68 -22.5 121.5t-59.5 84.5t-80 46.5t-90 15.5t-90 -15.5t-80 -46.5
t-59.5 -84.5t-22.5 -121.5v-594q0 -44 -24.5 -70t-65.5 -26t-65.5 26t-24.5 70z" />
    <glyph glyph-name="o" unicode="o" horiz-adv-x="1101" 
d="M72 545q0 148 54.5 272.5t165.5 204.5t259 80t259 -80t165.5 -204.5t54.5 -272.5t-54.5 -272.5t-165.5 -204.5t-259 -80t-259 80t-165.5 204.5t-54.5 272.5zM252 545q0 -58 9.5 -113t32.5 -108t56 -92.5t85 -64t116 -24.5t116 24.5t85 64t56 92.5t32.5 108t9.5 113
t-9.5 112.5t-32.5 107.5t-56 93t-85 64t-116 24t-116 -24t-85 -64t-56 -93t-32.5 -107.5t-9.5 -112.5z" />
    <glyph glyph-name="p" unicode="p" horiz-adv-x="1138" 
d="M289 545q0 -58 9.5 -113t32.5 -108t56 -92.5t85 -64t116 -24.5t116 24.5t85 64t56 92.5t32.5 108t9.5 113t-9.5 112.5t-32.5 107.5t-56 93t-85 64t-116 24t-116 -24t-85 -64t-56 -93t-32.5 -107.5t-9.5 -112.5zM127 -346v1352q0 44 24.5 70t65.5 26t65.5 -26t24.5 -70
v-54h4q78 150 291 150q107 0 196.5 -46.5t147.5 -124t89.5 -177.5t31.5 -209t-31.5 -209t-89.5 -177.5t-147.5 -124t-196.5 -46.5q-98 0 -174 43.5t-117 103.5h-4v-481q0 -44 -24.5 -70t-65.5 -26t-65.5 26t-24.5 70z" />
    <glyph glyph-name="q" unicode="q" horiz-adv-x="1138" 
d="M850 545q0 58 -9.5 112.5t-32.5 107.5t-56 93t-85 64t-116 24t-116 -24t-85 -64t-56 -93t-32.5 -107.5t-9.5 -112.5t9.5 -113t32.5 -108t56 -92.5t85 -64t116 -24.5t116 24.5t85 64t56 92.5t32.5 108t9.5 113zM72 545q0 109 31.5 209t89.5 177.5t147.5 124t196.5 46.5
q212 0 290 -150h4v54q0 44 25 70t66 26t65.5 -26t24.5 -70v-1352q0 -44 -24.5 -70t-65.5 -26t-66 26t-25 70v481h-4q-41 -60 -116.5 -103.5t-173.5 -43.5q-107 0 -196.5 46.5t-147.5 124t-89.5 177.5t-31.5 209z" />
    <glyph glyph-name="r" unicode="r" horiz-adv-x="645" 
d="M119 84v922q0 44 24.5 70t65.5 26t65.5 -26t24.5 -70v-93h4q35 71 104.5 130t141.5 59q46 0 73 -26t27 -66q0 -78 -112 -99q-43 -7 -82.5 -27t-76 -54.5t-58 -93.5t-21.5 -134v-518q0 -44 -24.5 -70t-65.5 -26t-65.5 26t-24.5 70z" />
    <glyph glyph-name="s" unicode="s" 
d="M94 795q0 73 32 132.5t85.5 97t119 57.5t134.5 20q77 0 159.5 -24t142.5 -70t60 -99q0 -31 -21.5 -52t-60.5 -21q-21 0 -42 11.5t-41.5 27.5t-45.5 32t-64 27.5t-87 11.5q-81 0 -136 -35.5t-55 -101.5q0 -38 32 -69.5t83.5 -55t113.5 -46.5t124 -51t113.5 -62t83.5 -85.5
t32 -115.5q0 -109 -58 -187t-146 -113.5t-193 -35.5q-164 0 -287 67t-123 140q0 36 22 58.5t52 22.5q25 0 59.5 -21t67 -45.5t90.5 -45.5t125 -21q94 0 152.5 44.5t58.5 103.5q0 43 -32 78.5t-83.5 62t-113.5 51.5t-124 54t-113.5 62.5t-83.5 84t-32 111.5z" />
    <glyph glyph-name="t" unicode="t" horiz-adv-x="532" 
d="M176 1090v235q0 44 24.5 70t65.5 26t65.5 -26t24.5 -70v-235h74q44 0 67 -20.5t23 -57.5t-23 -57.5t-67 -20.5h-74v-850q0 -44 -24.5 -70t-65.5 -26t-65.5 26t-24.5 70v850h-74q-44 0 -67 20.5t-23 57.5t23 57.5t67 20.5h74z" />
    <glyph glyph-name="u" unicode="u" horiz-adv-x="1101" 
d="M983 84q0 -44 -24.5 -70t-65.5 -26t-65.5 26t-24.5 70v43l-4 4q-112 -143 -301 -143q-53 0 -104 13t-101.5 44.5t-88.5 77.5t-61.5 117.5t-23.5 160.5v605q0 44 24.5 70t65.5 26t65.5 -26t24.5 -70v-594q0 -90 39 -153t94.5 -89.5t118.5 -26.5t118.5 26.5t94.5 89.5
t39 153v594q0 44 24.5 70t65.5 26t65.5 -26t24.5 -70v-922z" />
    <glyph glyph-name="v" unicode="v" horiz-adv-x="872" 
d="M342 66l-313 878q-19 52 -19 74q0 38 24 61t58 23q41 0 61.5 -17.5t32.5 -52.5l248 -753h4l248 753q12 35 32.5 52.5t61.5 17.5q34 0 58 -23t24 -61q0 -24 -18 -74l-314 -878q-14 -43 -33.5 -60.5t-60.5 -17.5t-60.5 17.5t-33.5 60.5z" />
    <glyph glyph-name="w" unicode="w" horiz-adv-x="1519" 
d="M317 82l-299 870q-14 47 -14 70q0 30 22 55t64 25q34 0 58.5 -19t41.5 -73l232 -744h4l227 717q22 67 41.5 93t65.5 26q45 0 64.5 -25.5t41.5 -93.5l228 -717h4l231 744q17 54 42 73t59 19q42 0 64 -25t22 -55q0 -19 -15 -70l-299 -870q-19 -52 -42 -73t-62 -21
q-38 0 -62 21.5t-41 72.5l-233 735h-4l-234 -735q-17 -52 -40.5 -73t-61.5 -21q-39 0 -62.5 21t-42.5 73z" />
    <glyph glyph-name="x" unicode="x" horiz-adv-x="950" 
d="M49 156l322 422l-283 370q-31 39 -31 72q0 34 22 58t54 24q46 0 78 -41l264 -352l264 352q32 41 78 41q32 0 54 -24t22 -58q0 -33 -31 -72l-282 -370l321 -422q37 -50 37 -86q0 -34 -23.5 -58t-58.5 -24q-53 0 -80 41l-301 417l-301 -417q-27 -41 -80 -41q-35 0 -58.5 24
t-23.5 58q0 36 37 86z" />
    <glyph glyph-name="y" unicode="y" 
d="M367 39l-308 887q-24 73 -24 100q0 33 25 54.5t57 21.5q33 0 57 -19t33 -49l250 -747h4l246 747q21 68 86 68q32 0 56.5 -21.5t24.5 -54.5q0 -27 -24 -100l-455 -1301q-24 -67 -88 -67q-32 0 -57 21t-25 54q0 29 27 101z" />
    <glyph glyph-name="z" unicode="z" 
d="M289 156h489q44 0 67 -20.5t23 -57.5t-23 -57.5t-67 -20.5h-649q-48 0 -68 18.5t-20 44.5q0 40 37 93l520 778h-446q-44 0 -67.5 20.5t-23.5 57.5t23.5 57.5t67.5 20.5h606q48 0 68 -19t20 -45q0 -39 -37 -92l-526 -774z" />
    <glyph glyph-name="braceleft" unicode="{" horiz-adv-x="493" 
d="M156 53v250q0 54 -1 81.5t-5.5 65.5t-14.5 58t-29 38.5t-47 26.5q-50 15 -70 30.5t-20 47.5t20.5 48.5t69.5 29.5q28 7 47 25t29 38t14.5 58.5t5.5 66.5t1 82v250q0 107 52.5 164t156.5 57h77q82 0 82 -61t-82 -61h-28q-40 0 -65 -27t-25 -72v-323q0 -252 -187 -273v-4
q187 -21 187 -272v-324q0 -45 25 -71.5t65 -26.5h28q82 0 82 -61q0 -62 -82 -62h-77q-104 0 -156.5 57t-52.5 164z" />
    <glyph glyph-name="bar" unicode="|" horiz-adv-x="454" 
d="M143 76v1417q0 40 21.5 64t62.5 24t62.5 -24t21.5 -64v-1417q0 -40 -21.5 -64t-62.5 -24t-62.5 24t-21.5 64z" />
    <glyph glyph-name="braceright" unicode="}" horiz-adv-x="493" 
d="M338 1249v-250q0 -40 0.5 -59.5t2 -51t5 -47.5t10.5 -38t17 -33.5t25.5 -23t35.5 -17.5q50 -15 70 -30.5t20 -47.5t-20.5 -48.5t-69.5 -29.5q-23 -6 -40 -17.5t-27.5 -33t-16.5 -39.5t-8.5 -53.5t-3 -57.5t-0.5 -69v-250q0 -107 -52.5 -164t-156.5 -57h-78q-82 0 -82 62
q0 61 82 61h29q40 0 65 26.5t25 71.5v324q0 251 186 272v4q-186 21 -186 273v323q0 45 -25 72t-65 27h-29q-82 0 -82 61t82 61h78q104 0 156.5 -57t52.5 -164z" />
    <glyph glyph-name="asciitilde" unicode="~" horiz-adv-x="1228" 
d="M131 430q0 87 85 161.5t181 74.5q44 0 90.5 -11.5t76 -24t75.5 -34.5q5 -3 20.5 -10.5t21 -10.5t19.5 -9.5t20.5 -9.5t18.5 -8t19 -7.5t17.5 -6t18 -5t15.5 -2.5t16 -1q24 0 44.5 14.5t36 35.5t31.5 41.5t38.5 35t50.5 13.5q30 -1 51 -19.5t21 -40.5q0 -87 -85.5 -161
t-181.5 -74q-63 0 -117.5 18t-123.5 51q-5 2 -14 7q-125 63 -173 63q-24 0 -44.5 -14.5t-35.5 -35t-31 -41t-38.5 -35t-50.5 -13.5q-30 1 -51 19t-21 40z" />
    <glyph glyph-name="sterling" unicode="&#xa3;" horiz-adv-x="1214" 
d="M496 815h264q40 0 64 -21.5t24 -62.5t-24 -62.5t-64 -21.5h-223q14 -82 14 -135q0 -77 -47.5 -174.5t-128.5 -169.5h690q40 0 64 -21.5t24 -62.5t-24 -62.5t-64 -21.5h-819q-50 0 -79.5 18.5t-29.5 67.5q0 23 24 53.5t58.5 65.5t69 77t58.5 103t24 129q0 77 -15 133h-206
q-40 0 -64.5 21.5t-24.5 62.5t24.5 62.5t64.5 21.5h157q-31 56 -49 93t-34.5 93t-16.5 107q0 104 62.5 188t163 129t216.5 45q88 0 175.5 -34t151 -86t103 -117t39.5 -125q0 -41 -23.5 -64.5t-62.5 -23.5q-27 0 -47 15.5t-33.5 40.5t-27.5 55.5t-34.5 60.5t-49 55t-77 40.5
t-112.5 15.5q-107 0 -185.5 -55.5t-78.5 -151.5q0 -38 12 -79.5t23.5 -65.5t38.5 -72.5t35 -63.5z" />
    <glyph glyph-name="currency" unicode="&#xa4;" horiz-adv-x="1097" 
d="M72 352l69 72q-100 112 -100 305t100 305l-69 72q-29 29 -29 57q0 30 23.5 52t46.5 22q20 0 43 -23l86 -88q117 111 307 111t307 -111l86 88q23 23 43 23q23 0 46.5 -22t23.5 -52q0 -28 -29 -57l-70 -72q101 -113 101 -305t-101 -305l70 -72q29 -29 29 -57
q0 -30 -23.5 -52t-46.5 -22q-20 0 -43 23l-86 88q-117 -111 -307 -111t-307 111l-86 -88q-23 -23 -43 -23q-23 0 -46.5 22t-23.5 52q0 28 29 57zM209 729q0 -153 100 -252.5t240 -99.5t240 99.5t100 252.5t-100 252.5t-240 99.5t-240 -99.5t-100 -252.5z" />
    <glyph glyph-name="brokenbar" unicode="&#xa6;" horiz-adv-x="454" 
d="M143 76v418q0 40 21.5 64t62.5 24t62.5 -24t21.5 -64v-418q0 -40 -21.5 -64t-62.5 -24t-62.5 24t-21.5 64zM143 1075v418q0 40 21.5 64t62.5 24t62.5 -24t21.5 -64v-418q0 -40 -21.5 -64t-62.5 -24t-62.5 24t-21.5 64z" />
    <glyph glyph-name="section" unicode="&#xa7;" horiz-adv-x="1138" 
d="M174 1135q0 157 119 246t313 89q89 0 169 -28.5t134 -73t85.5 -99.5t31.5 -108q0 -38 -21.5 -66t-60.5 -28q-31 0 -52.5 18.5t-33.5 46t-31.5 59.5t-43.5 59.5t-73 46t-116 18.5q-103 0 -171.5 -46t-68.5 -126q0 -47 31 -87t82.5 -68t116.5 -59t133.5 -58.5t133.5 -67
t116.5 -84t82.5 -111t31 -145.5q0 -101 -62.5 -196t-160.5 -150q133 -90 133 -242q0 -97 -65.5 -171.5t-162.5 -110.5t-202 -35q-109 1 -201.5 34t-147 80t-84.5 95t-30 86q0 102 90 102q27 0 47 -13.5t34 -34.5t28 -47t34 -52t47 -47t73 -34.5t106 -13.5q119 0 186.5 47
t67.5 117q0 42 -26 77.5t-69.5 63.5t-100 53.5t-119 51.5t-125 54.5t-119 65t-100 79.5t-69.5 102t-26 129q0 66 18 120.5t53.5 96t78 72.5t100.5 61q-73 54 -103 105t-30 127zM238 567q0 -75 61 -132t193 -122l233 -114q103 78 139.5 136t36.5 122q0 37 -5.5 63t-23.5 56.5
t-56 58t-97 55.5l-256 119q-107 -45 -166 -100t-59 -142z" />
    <glyph glyph-name="copyright" unicode="&#xa9;" horiz-adv-x="1638" 
d="M557 733q0 -131 73.5 -224t192.5 -93q61 0 105.5 19.5t68.5 47t42.5 55t39 47t45.5 19.5t45.5 -13.5t20.5 -43.5q0 -22 -14 -54t-44.5 -69t-72 -69t-104 -53t-132.5 -21q-192 0 -313 129.5t-121 322.5q0 197 118.5 325t315.5 128q73 0 136 -20t104 -50t71 -66.5t43 -68
t13 -55.5q0 -26 -18.5 -42t-49.5 -16q-30 0 -52 19t-39 45.5t-39 53.5t-65 46t-104 19q-127 0 -196.5 -88.5t-69.5 -229.5zM819 -12q-151 0 -288.5 58.5t-236.5 157.5t-157.5 236.5t-58.5 288.5t58.5 288.5t157.5 236.5t236.5 157.5t288.5 58.5q202 0 372.5 -99t270 -269.5
t99.5 -372.5t-99.5 -372.5t-270 -269.5t-372.5 -99zM819 143q115 0 220.5 46.5t183 124.5t124 187t46.5 228t-46.5 228t-124 187t-183 124.5t-220.5 46.5t-220.5 -46.5t-183 -124.5t-123.5 -187t-46 -228t46 -228t123.5 -187t183 -124.5t220.5 -46.5z" />
    <glyph glyph-name="guillemotleft" unicode="&#xab;" horiz-adv-x="833" 
d="M401 549l203 364q29 54 70 54q32 0 57 -19t25 -53q0 -23 -23 -64l-170 -282l170 -283q23 -41 23 -63q0 -34 -25 -53t-57 -19q-41 0 -70 53zM78 549l203 364q29 54 69 54q32 0 57 -19t25 -53q0 -25 -22 -64l-170 -282l170 -283q22 -39 22 -63q0 -34 -25 -53t-57 -19
q-40 0 -69 53z" />
    <glyph glyph-name="logicalnot" unicode="&#xac;" horiz-adv-x="1228" 
d="M965 647h-781q-40 0 -64 21.5t-24 62.5t24 62.5t64 21.5h865q41 0 62.5 -24t21.5 -64v-418q0 -40 -21.5 -64t-62.5 -24t-62.5 24t-21.5 64v338z" />
    <glyph glyph-name="registered" unicode="&#xae;" horiz-adv-x="1638" 
d="M780 657h-131v-292q0 -66 -67 -66q-68 0 -68 66v735q0 23 11 33t36 10h270q160 0 235 -55t75 -189q0 -210 -211 -235l182 -279q21 -32 21 -51q0 -16 -23.5 -25.5t-52.5 -9.5q-31 0 -49 10t-33 35zM649 780h156q47 0 76.5 3.5t61.5 15.5t47.5 39.5t15.5 70.5q0 36 -16 60
t-46.5 34t-58.5 13.5t-68 3.5h-168v-240zM819 -12q-151 0 -288.5 58.5t-236.5 157.5t-157.5 236.5t-58.5 288.5t58.5 288.5t157.5 236.5t236.5 157.5t288.5 58.5q202 0 372.5 -99t270 -269.5t99.5 -372.5t-99.5 -372.5t-270 -269.5t-372.5 -99zM819 143q115 0 220.5 46.5
t183 124.5t124 187t46.5 228t-46.5 228t-124 187t-183 124.5t-220.5 46.5t-220.5 -46.5t-183 -124.5t-123.5 -187t-46 -228t46 -228t123.5 -187t183 -124.5t220.5 -46.5z" />
    <glyph glyph-name="degree" unicode="&#xb0;" horiz-adv-x="819" 
d="M117 1178q0 121 85.5 206.5t207.5 85.5t207 -85t85 -207t-85.5 -207.5t-206.5 -85.5q-122 0 -207.5 85.5t-85.5 207.5zM227 1178q0 -75 54 -129t129 -54t128.5 54t53.5 129t-53.5 128.5t-128.5 53.5t-129 -53.5t-54 -128.5z" />
    <glyph glyph-name="plusminus" unicode="&#xb1;" horiz-adv-x="1228" 
d="M530 723v225q0 40 21.5 64t62.5 24t62.5 -24t21.5 -64v-225h346q40 0 64.5 -21.5t24.5 -62.5t-24.5 -62.5t-64.5 -21.5h-346v-225q0 -40 -21.5 -64t-62.5 -24t-62.5 24t-21.5 64v225h-346q-40 0 -64 21.5t-24 62.5t24 62.5t64 21.5h346zM1044 0h-860q-40 0 -64 21.5
t-24 62.5t24 62.5t64 21.5h860q40 0 64.5 -21.5t24.5 -62.5t-24.5 -62.5t-64.5 -21.5z" />
    <glyph glyph-name="mu" unicode="&#xb5;" horiz-adv-x="1101" 
d="M119 -346v1352q0 44 24.5 70t65.5 26t65.5 -26t24.5 -70v-578q0 -154 57 -219.5t195 -65.5t195 65.5t57 219.5v578q0 44 24.5 70t65.5 26t65.5 -26t24.5 -70v-922q0 -44 -24.5 -70t-65.5 -26q-68 0 -84 59q-99 -59 -258 -59q-166 0 -252 94v-428q0 -44 -24.5 -70
t-65.5 -26t-65.5 26t-24.5 70z" />
    <glyph glyph-name="mu" unicode="&#x3bc;" horiz-adv-x="1101" 
d="M119 -346v1352q0 44 24.5 70t65.5 26t65.5 -26t24.5 -70v-578q0 -154 57 -219.5t195 -65.5t195 65.5t57 219.5v578q0 44 24.5 70t65.5 26t65.5 -26t24.5 -70v-922q0 -44 -24.5 -70t-65.5 -26q-68 0 -84 59q-99 -59 -258 -59q-166 0 -252 94v-428q0 -44 -24.5 -70
t-65.5 -26t-65.5 26t-24.5 70z" />
    <glyph glyph-name="paragraph" unicode="&#xb6;" horiz-adv-x="1228" 
d="M496 -354v1059q-197 0 -318 105.5t-121 272.5q0 170 135 272.5t388 102.5h391q49 0 72.5 -27t23.5 -71v-1714q0 -40 -21.5 -64t-62.5 -24t-62.5 24t-21.5 64v1677h-235v-1677q0 -40 -21.5 -64t-62.5 -24t-62.5 24t-21.5 64z" />
    <glyph glyph-name="periodcentered" unicode="&#xb7;" horiz-adv-x="512" 
d="M145 621q0 46 32.5 78t78.5 32t78.5 -32t32.5 -78t-32.5 -78.5t-78.5 -32.5t-78.5 32.5t-32.5 78.5z" />
    <glyph glyph-name="periodcentered" unicode="&#x2219;" horiz-adv-x="512" 
d="M145 621q0 46 32.5 78t78.5 32t78.5 -32t32.5 -78t-32.5 -78.5t-78.5 -32.5t-78.5 32.5t-32.5 78.5z" />
    <glyph glyph-name="guillemotright" unicode="&#xbb;" horiz-adv-x="833" 
d="M100 266l170 283l-170 282q-22 39 -22 64q0 34 25 53t57 19q40 0 69 -54l203 -364l-203 -365q-29 -53 -69 -53q-32 0 -57 19t-25 53q0 24 22 63zM424 266l170 283l-170 282q-23 41 -23 64q0 34 25 53t57 19q41 0 70 -54l203 -364l-203 -365q-29 -53 -70 -53q-32 0 -57 19
t-25 53q0 22 23 63z" />
    <glyph glyph-name="divide" unicode="&#xf7;" horiz-adv-x="1228" 
d="M1044 434h-860q-40 0 -64 21.5t-24 62.5t24 62.5t64 21.5h860q40 0 64.5 -21.5t24.5 -62.5t-24.5 -62.5t-64.5 -21.5zM467 942q0 62 43 105t104 43q62 0 105 -43t43 -105q0 -61 -43 -104t-105 -43t-104.5 42.5t-42.5 104.5zM467 94q0 62 43 105t104 43q62 0 105 -43
t43 -105q0 -61 -43 -104t-105 -43t-104.5 42.5t-42.5 104.5z" />
    <glyph glyph-name="florin" unicode="&#x192;" horiz-adv-x="1097" 
d="M301 885h129l45 254q31 176 103.5 253.5t216.5 77.5q68 0 101.5 -21t33.5 -56q0 -36 -28.5 -51t-88.5 -15q-69 0 -107 -51t-59 -164l-41 -227h127q32 0 55 -23t23 -55t-23 -55t-55 -23h-153l-148 -811q-15 -80 -30 -132t-40 -99t-59.5 -73t-86 -41t-122.5 -15
q-68 0 -100.5 22.5t-32.5 59.5q0 75 92 75h84q51 0 78.5 58t52.5 196l135 760h-102q-32 0 -55 23t-23 55t23 55t55 23z" />
    <glyph glyph-name="Delta" unicode="&#x394;" horiz-adv-x="1380" 
d="M1251 0h-1118q-21 0 -35 16.5t-14 38.5q0 3 6 21l598 1354q16 40 47 40q27 0 43 -40l525 -1354q6 -12 6 -27q0 -21 -15 -35t-43 -14zM1079 125l-387 983l-436 -983h823z" />
    <glyph glyph-name="Delta" unicode="&#x2206;" horiz-adv-x="1380" 
d="M1251 0h-1118q-21 0 -35 16.5t-14 38.5q0 3 6 21l598 1354q16 40 47 40q27 0 43 -40l525 -1354q6 -12 6 -27q0 -21 -15 -35t-43 -14zM1079 125l-387 983l-436 -983h823z" />
    <glyph glyph-name="afii10023" unicode="&#x401;" 
d="M299 645v-477h434q40 0 64 -21.5t24 -62.5t-24 -62.5t-64 -21.5h-518q-49 0 -72.5 27t-23.5 71v1262q0 44 23.5 71t72.5 27h518q40 0 64 -21.5t24 -62.5t-24 -62.5t-64 -21.5h-434v-477h395q40 0 64 -21.5t24 -62.5t-24 -62.5t-64 -21.5h-395zM154 1675q0 46 32 78.5
t78 32.5t78.5 -32.5t32.5 -78.5t-32.5 -78t-78.5 -32t-78 32t-32 78zM535 1675q0 46 32 78.5t78 32.5t78.5 -32.5t32.5 -78.5t-32.5 -78t-78.5 -32t-78 32t-32 78z" />
    <glyph glyph-name="afii10051" unicode="&#x402;" horiz-adv-x="1228" 
d="M1184 408q0 -138 -30.5 -259.5t-88 -220t-125 -176.5t-156.5 -153q-49 -41 -84 -41q-25 0 -49 23t-24 61q0 21 15 40.5t56 55.5q306 272 306 608v92q0 152 -79.5 225.5t-219.5 73.5h-160v-653q0 -44 -24.5 -70t-65.5 -26t-65.5 26t-24.5 70v1206h-273q-40 0 -64 21.5
t-24 62.5t24 62.5t64 21.5h725q40 0 64 -21.5t24 -62.5t-24 -62.5t-64 -21.5h-272v-397h172q209 0 338 -123.5t129 -361.5z" />
    <glyph glyph-name="afii10052" unicode="&#x403;" horiz-adv-x="833" 
d="M748 1761q0 -46 -72 -75l-236 -97q-45 -18 -69 -18q-36 0 -57 29t-21 57q0 47 72 76l235 96q45 18 70 18q36 0 57 -29t21 -57zM299 84q0 -44 -24.5 -70t-65.5 -26t-65.5 26t-24.5 70v1276q0 44 23.5 71t72.5 27h512q40 0 64 -21.5t24 -62.5t-24 -62.5t-64 -21.5h-428
v-1206z" />
    <glyph glyph-name="afii10053" unicode="&#x404;" horiz-adv-x="1214" 
d="M1165 190q0 -72 -139 -137t-324 -65q-123 0 -228 40.5t-179.5 111t-127.5 165t-78.5 202t-25.5 222.5t25.5 222.5t79 202t129.5 165t183 111t233 40.5q91 0 173.5 -22.5t135 -56t83 -69.5t30.5 -65q0 -36 -20.5 -61t-53.5 -25q-22 0 -45.5 15t-48.5 36t-57 42t-83 36
t-114 15q-85 0 -156.5 -28t-122 -75.5t-88 -112.5t-58 -136t-28.5 -150h553q40 0 64 -21.5t24 -62.5t-24 -62.5t-64 -21.5h-553q10 -99 41 -186.5t84 -159.5t134.5 -114t182.5 -42q74 0 142 20.5t108 45t79 45t63 20.5q32 0 51.5 -23t19.5 -61z" />
    <glyph glyph-name="afii10054" unicode="&#x405;" horiz-adv-x="985" 
d="M487 1470q138 0 248.5 -50.5t110.5 -119.5q0 -33 -22.5 -56t-55.5 -23q-26 0 -54 14.5t-52 32.5t-72 32.5t-109 14.5q-101 0 -166 -57.5t-65 -149.5q0 -46 19.5 -83t52.5 -61.5t77.5 -46.5t94 -38t102.5 -36.5t102.5 -41.5t94 -53.5t77.5 -72t52.5 -97.5t19.5 -129
q0 -123 -56 -226.5t-170 -169t-267 -65.5q-97 0 -190 22t-154.5 63.5t-61.5 90.5q0 39 20 65.5t56 26.5q19 0 52 -17.5t67.5 -39t92 -39t120.5 -17.5q136 0 217.5 85.5t81.5 211.5q0 55 -23.5 97.5t-64 70t-92.5 50t-109.5 42t-114.5 40.5t-109 51t-92.5 69t-64 99.5
t-23.5 136.5q0 65 30 130.5t83 120t136.5 89t180.5 34.5z" />
    <glyph glyph-name="afii10055" unicode="&#x406;" horiz-adv-x="417" 
d="M299 1374v-1290q0 -44 -24.5 -70t-65.5 -26t-65.5 26t-24.5 70v1290q0 44 24.5 70t65.5 26t65.5 -26t24.5 -70z" />
    <glyph glyph-name="afii10056" unicode="&#x407;" horiz-adv-x="417" 
d="M299 1374v-1290q0 -44 -24.5 -70t-65.5 -26t-65.5 26t-24.5 70v1290q0 44 24.5 70t65.5 26t65.5 -26t24.5 -70zM-92 1675q0 46 32 78.5t78 32.5t78.5 -32.5t32.5 -78.5t-32.5 -78t-78.5 -32t-78 32t-32 78zM289 1675q0 46 32 78.5t78 32.5t78.5 -32.5t32.5 -78.5
t-32.5 -78t-78.5 -32t-78 32t-32 78z" />
    <glyph glyph-name="afii10057" unicode="&#x408;" horiz-adv-x="757" 
d="M459 352v1022q0 44 24.5 70t65.5 26t65.5 -26t24.5 -70v-1003q0 -383 -354 -383q-53 0 -120 18t-123 57.5t-56 88.5q0 34 19.5 54.5t51.5 20.5q27 0 51 -13t42 -29t57 -29t92 -13q160 0 160 209z" />
    <glyph glyph-name="afii10058" unicode="&#x409;" horiz-adv-x="1974" 
d="M1186 1362v-524h254q239 0 362 -108.5t123 -293.5q0 -193 -126.5 -314.5t-350.5 -121.5h-352q-42 0 -66 28t-24 81v1194h-461v-574q0 -158 -23 -284t-63 -210.5t-96.5 -140.5t-120.5 -81t-138 -25q-40 0 -64 21.5t-24 62.5t24 62.5t64 21.5q36 0 71.5 17.5t70 60.5
t61 106.5t42.5 163.5t16 225v621q0 53 24 80.5t66 27.5h641q90 0 90 -96zM1745 436q0 114 -78.5 180t-218.5 66h-262v-514h254q136 0 220.5 70.5t84.5 197.5z" />
    <glyph glyph-name="afii10059" unicode="&#x40a;" horiz-adv-x="1974" 
d="M1096 0q-42 0 -66 28t-24 81v573h-707v-586q0 -53 -24 -80.5t-66 -27.5t-66 27.5t-24 80.5v1266q0 53 24 80.5t66 27.5t66 -27.5t24 -80.5v-524h707v524q0 53 24 80.5t66 27.5t66 -27.5t24 -80.5v-524h254q239 0 362 -108.5t123 -293.5q0 -193 -126.5 -314.5
t-350.5 -121.5h-352zM1745 436q0 114 -78.5 180t-218.5 66h-262v-514h254q136 0 220.5 70.5t84.5 197.5z" />
    <glyph glyph-name="afii10060" unicode="&#x40b;" horiz-adv-x="1253" 
d="M1184 96q0 -53 -24 -80.5t-66 -27.5t-66 27.5t-24 80.5v383q0 122 -81.5 190t-217.5 68h-160v-653q0 -44 -24.5 -70t-65.5 -26t-65.5 26t-24.5 70v1206h-273q-40 0 -64 21.5t-24 62.5t24 62.5t64 21.5h725q40 0 64 -21.5t24 -62.5t-24 -62.5t-64 -21.5h-272v-397h172
q203 0 335 -113.5t132 -300.5v-383z" />
    <glyph glyph-name="afii10061" unicode="&#x40c;" horiz-adv-x="1175" 
d="M870 1761q0 -46 -71 -75l-236 -97q-45 -18 -69 -18q-36 0 -57 29t-21 57q0 47 71 76l236 96q45 18 70 18q36 0 56.5 -28.5t20.5 -57.5zM299 694v-610q0 -44 -24.5 -70t-65.5 -26t-65.5 26t-24.5 70v1290q0 44 24.5 70t65.5 26t65.5 -26t24.5 -70v-532l625 571
q21 20 32.5 29.5t30 18.5t35.5 9q34 0 56 -21t22 -56q0 -32 -9 -48.5t-28 -33.5l-598 -539l653 -631q37 -34 37 -73q0 -33 -26 -56.5t-62 -23.5q-47 0 -88 39z" />
    <glyph glyph-name="afii10062" unicode="&#x40e;" horiz-adv-x="1024" 
d="M238 1575q0 32 17 53t46 21q20 0 43.5 -18.5t43 -40t53.5 -40t73 -18.5t73 18.5t53.5 40t43 40t43.5 18.5q29 0 46.5 -21.5t17.5 -52.5q0 -84 -91 -141.5t-186 -57.5q-59 0 -121.5 23.5t-108.5 71t-46 104.5zM1001 1386q0 -20 -8 -36l-573 -1311q-22 -51 -76 -51
q-35 0 -61.5 24t-26.5 60q0 21 8 37l156 354l-387 887q-8 16 -8 36q0 36 27.5 60t62.5 24q51 0 73 -51l324 -743l326 743q22 51 73 51q35 0 62.5 -24t27.5 -60z" />
    <glyph glyph-name="afii10145" unicode="&#x40f;" horiz-adv-x="1366" 
d="M1247 109q0 -53 -24 -81t-66 -28h-383v-334q0 -53 -24 -80.5t-66 -27.5t-66 27.5t-24 80.5v334h-385q-42 0 -66 28t-24 81v1253q0 53 24 80.5t66 27.5t66 -27.5t24 -80.5v-1206h768v1206q0 53 24 80.5t66 27.5t66 -27.5t24 -80.5v-1253z" />
    <glyph glyph-name="afii10017" unicode="&#x410;" horiz-adv-x="1253" 
d="M289 317l-94 -262q-24 -67 -89 -67q-37 0 -61.5 20.5t-24.5 54.5q0 16 25 91l453 1206q21 53 50.5 81.5t78.5 28.5t78.5 -28.5t50.5 -81.5l452 -1206q25 -75 25 -91q0 -34 -24.5 -54.5t-61.5 -20.5q-64 0 -88 67l-94 262h-676zM909 473l-280 789h-4l-281 -789h565z" />
    <glyph glyph-name="afii10018" unicode="&#x411;" horiz-adv-x="1099" 
d="M1038 442q0 -194 -126.5 -318t-350.5 -124h-346q-49 0 -72.5 27t-23.5 71v1262q0 44 23.5 71t72.5 27h621q40 0 64 -21.5t24 -62.5t-24 -62.5t-64 -21.5h-537v-428h254q237 0 361 -116.5t124 -303.5zM858 442q0 114 -79 183t-218 69h-262v-526h254q135 0 220 73t85 201z
" />
    <glyph glyph-name="afii10019" unicode="&#x412;" horiz-adv-x="1099" 
d="M299 1303v-461h205q112 0 176.5 66t64.5 169t-59.5 164.5t-175.5 61.5h-211zM299 694v-538h254q133 0 219 75t86 195q0 116 -80 192t-217 76h-262zM119 98v1262q0 44 23.5 71t72.5 27h317q93 0 170 -31t124.5 -81t73.5 -111t26 -125q0 -118 -56 -204.5t-147 -114.5v-5
q134 -14 224.5 -115.5t90.5 -244.5q0 -87 -32 -163.5t-91 -135.5t-150.5 -93t-203.5 -34h-346q-49 0 -72.5 27t-23.5 71z" />
    <glyph glyph-name="afii10020" unicode="&#x413;" horiz-adv-x="833" 
d="M299 84q0 -44 -24.5 -70t-65.5 -26t-65.5 26t-24.5 70v1276q0 44 23.5 71t72.5 27h512q40 0 64 -21.5t24 -62.5t-24 -62.5t-64 -21.5h-428v-1206z" />
    <glyph glyph-name="afii10021" unicode="&#x414;" horiz-adv-x="1433" 
d="M1403 -272q0 -53 -24 -81t-66 -28t-66 28t-24 81v272h-1022v-272q0 -53 -24 -81t-66 -28t-66.5 28t-24.5 81v344q0 40 24.5 62t64.5 22h84q117 209 155.5 452.5t38.5 597.5v144q0 53 24 80.5t66 27.5h645q42 0 66 -27.5t24 -80.5v-1194h103q39 0 63.5 -22t24.5 -62v-344z
M1032 156v1147h-457v-97q0 -345 -38.5 -597t-141.5 -453h637z" />
    <glyph glyph-name="afii10022" unicode="&#x415;" 
d="M299 645v-477h434q40 0 64 -21.5t24 -62.5t-24 -62.5t-64 -21.5h-518q-49 0 -72.5 27t-23.5 71v1262q0 44 23.5 71t72.5 27h518q40 0 64 -21.5t24 -62.5t-24 -62.5t-64 -21.5h-434v-477h395q40 0 64 -21.5t24 -62.5t-24 -62.5t-64 -21.5h-395z" />
    <glyph glyph-name="afii10024" unicode="&#x416;" horiz-adv-x="1929" 
d="M1909 68q0 -33 -26 -56.5t-62 -23.5q-47 0 -88 39l-680 667v-610q0 -44 -24.5 -70t-65.5 -26t-66 26t-25 70v610l-679 -667q-39 -39 -89 -39q-36 0 -62 23.5t-26 56.5q0 39 37 73l654 631l-598 539q-12 11 -19 19t-12.5 24.5t-5.5 38.5q0 35 22 56t56 21q25 0 46 -13.5
t52 -43.5l624 -571v532q0 44 25 70t66 26t65.5 -26t24.5 -70v-532l624 571q21 19 33 29.5t30.5 19t35.5 8.5q34 0 55.5 -21t21.5 -56q0 -32 -9 -48.5t-27 -33.5l-598 -539l653 -631q37 -34 37 -73z" />
    <glyph glyph-name="afii10025" unicode="&#x417;" horiz-adv-x="1024" 
d="M465 686q-84 0 -84 78q0 38 20.5 54.5t63.5 23.5q115 18 162 63q33 33 52 85t19 104q0 105 -60.5 163t-162.5 58q-61 0 -110.5 -16t-75 -35.5t-54.5 -35.5t-55 -16q-33 0 -55.5 23.5t-22.5 56.5q0 69 115 123.5t252 54.5q201 0 311.5 -102.5t110.5 -271.5
q0 -93 -49 -176.5t-135 -135.5q120 -36 184.5 -128.5t64.5 -213.5q0 -91 -33 -173t-94 -144.5t-156 -99.5t-210 -37q-97 0 -190 22t-154.5 63.5t-61.5 90.5q0 39 20 65.5t56 26.5q19 0 52 -17.5t67.5 -39t92 -39t120.5 -17.5q135 0 217 83t82 200q0 143 -75.5 201.5
t-223.5 58.5z" />
    <glyph glyph-name="afii10026" unicode="&#x418;" horiz-adv-x="1366" 
d="M1247 84q0 -44 -24.5 -70t-65.5 -26t-65.5 26t-24.5 70v1057h-4l-735 -1059q-38 -56 -63 -75t-64 -19q-38 0 -60 29t-22 77v1280q0 44 24.5 70t65.5 26t65.5 -26t24.5 -70v-1057h4l735 1059q38 56 63 75t64 19q37 0 59.5 -28t22.5 -78v-1280z" />
    <glyph glyph-name="afii10027" unicode="&#x419;" horiz-adv-x="1366" 
d="M1247 84q0 -44 -24.5 -70t-65.5 -26t-65.5 26t-24.5 70v1057h-4l-735 -1059q-38 -56 -63 -75t-64 -19q-38 0 -60 29t-22 77v1280q0 44 24.5 70t65.5 26t65.5 -26t24.5 -70v-1057h4l735 1059q38 56 63 75t64 19q37 0 59.5 -28t22.5 -78v-1280zM406 1575q0 32 17 53t46 21
q20 0 43.5 -18.5t43 -40t53.5 -40t73 -18.5t73 18.5t53.5 40t43 40t43.5 18.5q29 0 46 -21t17 -53q0 -57 -46 -104.5t-108.5 -71t-121.5 -23.5t-121.5 23.5t-108.5 71t-46 104.5z" />
    <glyph glyph-name="afii10028" unicode="&#x41a;" horiz-adv-x="1175" 
d="M299 694v-610q0 -44 -24.5 -70t-65.5 -26t-65.5 26t-24.5 70v1290q0 44 24.5 70t65.5 26t65.5 -26t24.5 -70v-532l625 571q21 20 32.5 29.5t30 18.5t35.5 9q34 0 56 -21t22 -56q0 -32 -9 -48.5t-28 -33.5l-598 -539l653 -631q37 -34 37 -73q0 -33 -26 -56.5t-62 -23.5
q-47 0 -88 39z" />
    <glyph glyph-name="afii10029" unicode="&#x41b;" horiz-adv-x="1366" 
d="M365 729v621q0 53 24 80.5t66 27.5h702q42 0 66 -27.5t24 -80.5v-1254q0 -53 -24 -80.5t-66 -27.5t-66 27.5t-24 80.5v1207h-522v-574q0 -158 -23 -284t-63 -210.5t-96.5 -140.5t-120.5 -81t-138 -25q-40 0 -64 21.5t-24 62.5t24 62.5t64 21.5q36 0 71.5 17.5t70 60.5
t61 106.5t42.5 163.5t16 225z" />
    <glyph glyph-name="afii10030" unicode="&#x41c;" horiz-adv-x="1708" 
d="M1649 80q0 -42 -22 -67t-62 -25q-87 0 -97 78l-170 1171h-4l-348 -1176q-22 -73 -92 -73t-92 73l-348 1176h-4l-170 -1171q-10 -78 -97 -78q-40 0 -62 25t-22 67q0 18 11 82l198 1171q11 72 49.5 104.5t92.5 32.5q55 0 85.5 -21.5t45.5 -72.5l311 -1067h4l311 1067
q15 51 45.5 72.5t85.5 21.5q54 0 92.5 -32.5t49.5 -104.5l198 -1171q11 -64 11 -82z" />
    <glyph glyph-name="afii10031" unicode="&#x41d;" horiz-adv-x="1366" 
d="M299 653v-557q0 -53 -24 -80.5t-66 -27.5t-66 27.5t-24 80.5v1266q0 53 24 80.5t66 27.5t66 -27.5t24 -80.5v-553h768v553q0 53 24 80.5t66 27.5t66 -27.5t24 -80.5v-1266q0 -53 -24 -80.5t-66 -27.5t-66 27.5t-24 80.5v557h-768z" />
    <glyph glyph-name="afii10032" unicode="&#x41e;" horiz-adv-x="1404" 
d="M256 729q0 -87 14.5 -168.5t48.5 -158t84 -133.5t127 -91.5t172 -34.5t172 34.5t127.5 91.5t84.5 133.5t48.5 158t14.5 168.5t-14.5 168.5t-48.5 158t-84.5 133.5t-127.5 91.5t-172 34.5t-172 -34.5t-127 -91.5t-84 -133.5t-48.5 -158t-14.5 -168.5zM63 729
q0 115 26 222.5t79.5 202t128.5 165t179.5 111t225.5 40.5t225.5 -40.5t179.5 -111t128.5 -165t79.5 -202t26 -222.5t-26 -222.5t-79.5 -202t-128.5 -165t-179.5 -111t-225.5 -40.5t-225.5 40.5t-179.5 111t-128.5 165t-79.5 202t-26 222.5z" />
    <glyph glyph-name="afii10033" unicode="&#x41f;" horiz-adv-x="1366" 
d="M299 1303v-1207q0 -53 -24 -80.5t-66 -27.5t-66 27.5t-24 80.5v1254q0 53 24 80.5t66 27.5h948q42 0 66 -27.5t24 -80.5v-1254q0 -53 -24 -80.5t-66 -27.5t-66 27.5t-24 80.5v1207h-768z" />
    <glyph glyph-name="afii10034" unicode="&#x420;" horiz-adv-x="1062" 
d="M299 545v-461q0 -44 -24.5 -70t-65.5 -26t-65.5 26t-24.5 70v1276q0 44 23.5 71t72.5 27h356q214 0 343.5 -131.5t129.5 -327.5q0 -191 -133.5 -322.5t-332.5 -131.5h-279zM299 1303v-603h266q131 0 215 86t84 213q0 57 -17 108.5t-51.5 96.5t-96 72t-142.5 27h-258z" />
    <glyph glyph-name="afii10035" unicode="&#x421;" horiz-adv-x="1214" 
d="M256 729q0 -86 16.5 -168.5t52 -158.5t86.5 -133.5t126 -91.5t165 -34q74 0 142 20.5t108 45t79 45t63 20.5q32 0 51.5 -23t19.5 -61q0 -72 -139 -137t-324 -65q-123 0 -228 40.5t-179.5 111t-127.5 165t-78.5 202t-25.5 222.5t25.5 222.5t79 202t129.5 165t183 111
t233 40.5q91 0 173.5 -22.5t135 -56t83 -69.5t30.5 -65q0 -36 -20.5 -61t-53.5 -25q-22 0 -45.5 15t-48.5 36t-57 42t-83 36t-114 15q-94 0 -171.5 -34.5t-129.5 -91.5t-88 -133.5t-52 -158.5t-16 -168z" />
    <glyph glyph-name="afii10036" unicode="&#x422;" 
d="M365 84v1206h-273q-40 0 -64 21.5t-24 62.5t24 62.5t64 21.5h725q40 0 64 -21.5t24 -62.5t-24 -62.5t-64 -21.5h-272v-1206q0 -44 -24.5 -70t-65.5 -26t-65.5 26t-24.5 70z" />
    <glyph glyph-name="afii10037" unicode="&#x423;" horiz-adv-x="1024" 
d="M1001 1386q0 -20 -8 -36l-573 -1311q-22 -51 -76 -51q-35 0 -61.5 24t-26.5 60q0 21 8 37l156 354l-387 887q-8 16 -8 36q0 36 27.5 60t62.5 24q51 0 73 -51l324 -743l326 743q22 51 73 51q35 0 62.5 -24t27.5 -60z" />
    <glyph glyph-name="afii10038" unicode="&#x424;" horiz-adv-x="1611" 
d="M1554 729q0 -95 -21 -184t-65 -167.5t-106 -136.5t-149 -92t-189 -34q-64 0 -125 18v-49q0 -44 -24.5 -70t-65.5 -26t-65.5 26t-24.5 70v49q-56 -18 -125 -18q-102 0 -189 34t-149.5 92t-106.5 136.5t-65 167.5t-21 184q0 119 34.5 227.5t100 194.5t170 137t234.5 51
q59 0 117 -20v55q0 44 24.5 70t65.5 26t65.5 -26t24.5 -70v-55q73 20 117 20q130 0 234.5 -51t169.5 -137t99.5 -194t34.5 -228zM1362 729q0 65 -12 127.5t-39 121t-66 102t-98 70t-131 26.5q-63 0 -117 -21v-858q63 -18 125 -18q68 0 125.5 26.5t96 70.5t65.5 102.5
t39 121.5t12 129zM719 297v858q-54 21 -117 21q-72 0 -131 -26.5t-98 -70t-66 -102t-39 -121t-12 -127.5q0 -66 12 -129t39 -121.5t65.5 -102.5t96 -70.5t125.5 -26.5q62 0 125 18z" />
    <glyph glyph-name="afii10039" unicode="&#x425;" horiz-adv-x="1216" 
d="M608 641l-418 -596q-26 -35 -45.5 -46t-44.5 -11q-32 0 -57 22t-25 53t29 74l457 645l-381 539q-29 42 -29 74q0 33 23.5 54t56.5 21q26 0 47 -11.5t45 -45.5l342 -500l342 500q24 34 45 45.5t47 11.5q33 0 56.5 -21t23.5 -54t-28 -74l-381 -539l456 -645q29 -44 29 -74
q0 -31 -25 -53t-57 -22q-25 0 -44.5 11t-45.5 46z" />
    <glyph glyph-name="afii10040" unicode="&#x426;" horiz-adv-x="1466" 
d="M1270 0h-1061q-42 0 -66 28t-24 81v1253q0 53 24 80.5t66 27.5t66 -27.5t24 -80.5v-1206h768v1206q0 53 24 80.5t66 27.5t66 -27.5t24 -80.5v-1206h115q39 0 63.5 -22t24.5 -62v-344q0 -53 -24 -81t-66 -28t-66 28t-24 81v272z" />
    <glyph glyph-name="afii10041" unicode="&#x427;" horiz-adv-x="1138" 
d="M1020 96q0 -53 -24 -80.5t-66 -27.5t-66 27.5t-24 80.5v469h-295q-199 0 -333 132t-134 323v342q0 53 24 80.5t66 27.5t66 -27.5t24 -80.5v-342q0 -127 84 -213t215 -86h283v641q0 53 24 80.5t66 27.5t66 -27.5t24 -80.5v-1266z" />
    <glyph glyph-name="afii10042" unicode="&#x428;" horiz-adv-x="2021" 
d="M209 0q-42 0 -66 28t-24 81v1253q0 53 24 80.5t66 27.5t66 -27.5t24 -80.5v-1206h625v1206q0 53 24 80.5t66 27.5t66 -27.5t24 -80.5v-1206h625v1206q0 53 24 80.5t66 27.5t66 -27.5t24 -80.5v-1253q0 -53 -24 -81t-66 -28h-1610z" />
    <glyph glyph-name="afii10043" unicode="&#x429;" horiz-adv-x="2115" 
d="M209 0q-42 0 -66 28t-24 81v1253q0 53 24 80.5t66 27.5t66 -27.5t24 -80.5v-1206h625v1206q0 53 24 80.5t66 27.5t66 -27.5t24 -80.5v-1206h625v1206q0 53 24 80.5t66 27.5t66 -27.5t24 -80.5v-1206h114q39 0 63.5 -22t24.5 -62v-344q0 -53 -24 -81t-66 -28t-66 28
t-24 81v272h-1722z" />
    <glyph glyph-name="afii10044" unicode="&#x42a;" horiz-adv-x="1366" 
d="M1124 442q0 114 -79 183t-218 69h-262v-526h254q135 0 220 73t85 201zM475 1458q39 0 64.5 -26.5t25.5 -69.5v-500h254q237 0 361.5 -116.5t124.5 -303.5q0 -194 -127 -318t-351 -124h-346q-49 0 -72.5 27t-23.5 71v1192h-293q-40 0 -64 21.5t-24 62.5t25 62.5t63 21.5
h383z" />
    <glyph glyph-name="afii10045" unicode="&#x42b;" horiz-adv-x="1519" 
d="M1415 1374v-1290q0 -44 -24.5 -70t-65.5 -26t-65.5 26t-24.5 70v1290q0 44 24.5 70t65.5 26t65.5 -26t24.5 -70zM119 1374q0 44 24.5 70t65.5 26t65.5 -26t24.5 -70v-512h254q237 0 361 -116.5t124 -303.5q0 -194 -126.5 -318t-350.5 -124h-346q-49 0 -72.5 27t-23.5 71
v1276zM858 442q0 114 -79 183t-218 69h-262v-526h254q135 0 220 73t85 201z" />
    <glyph glyph-name="afii10046" unicode="&#x42c;" horiz-adv-x="1099" 
d="M119 1374q0 44 24.5 70t65.5 26t65.5 -26t24.5 -70v-512h254q237 0 361 -116.5t124 -303.5q0 -194 -126.5 -318t-350.5 -124h-346q-49 0 -72.5 27t-23.5 71v1276zM858 442q0 114 -79 183t-218 69h-262v-526h254q135 0 220 73t85 201z" />
    <glyph glyph-name="afii10047" unicode="&#x42d;" horiz-adv-x="1214" 
d="M1161 729q0 -115 -25.5 -222.5t-78.5 -202t-127.5 -165t-179.5 -111t-228 -40.5q-185 0 -324 65t-139 137q0 38 20 61t52 23q24 0 63 -20.5t78.5 -45t107.5 -45t142 -20.5q81 0 150.5 28t119 75.5t86.5 112t58 136.5t29 150h-553q-40 0 -64 21.5t-24 62.5t24 62.5
t64 21.5h553q-8 79 -28.5 150t-58 136t-88 112.5t-122 75.5t-156.5 28q-63 0 -114 -15t-83 -36t-57 -42t-48.5 -36t-45.5 -15q-33 0 -53.5 25t-20.5 61q0 29 30.5 65t83 69.5t135 56t173.5 22.5q126 0 233 -40.5t182.5 -111t129 -165t79 -202t25.5 -222.5z" />
    <glyph glyph-name="afii10048" unicode="&#x42e;" horiz-adv-x="1875" 
d="M1812 729q0 -115 -26 -222.5t-79 -202t-128 -165t-179.5 -111t-225.5 -40.5q-141 0 -258 54.5t-195.5 147.5t-125.5 211.5t-58 251.5v0v0v0h-1v0v0h-1v0h-1v0h-1v0h-1h-1h-1h-1h-1h-1h-1h-1h-1h-1h-1h-1h-1h-1h-1h-1h-1h-1h-1h-1h-1h-1h-1h-1h-1h-1h-1h-1h-1h-1h-1h-1h-1
h-1h-1h-1h-1h-1h-1h-1h-1h-1h-1h-1h-1h-2h-1h-1h-1h-1h-1h-1h-2h-1h-1h-1h-1h-2h-1h-1h-1h-2h-1h-1h-1h-2h-1h-1h-1h-2h-1h-1h-2h-1h-1h-2h-1h-1h-2h-1h-2h-1h-1h-2h-1h-2h-1h-1h-2h-1h-2h-1h-2h-1h-2h-1h-2h-1h-2h-1h-2h-1h-2h-1h-2h-1h-2h-1h-2h-2h-1h-2h-1h-2h-1h-2h-2
h-1h-2h-2h-1h-2h-1h-2h-2h-1h-2h-2h-1h-2h-2h-1h-2h-2h-2h-1h-2h-2h-1h-2h-2h-2h-1h-2h-2h-2h-2h-1h-2h-2h-2h-1h-2h-2h-2h-2h-2h-1h-2h-2h-2h-2h-2h-9v-557q0 -53 -24 -80.5t-66 -27.5t-66 27.5t-24 80.5v1266q0 53 24 80.5t66 27.5t66 -27.5t24 -80.5v-553h240
q11 133 58 250.5t124.5 210t194.5 146.5t258 54q121 0 225.5 -40.5t179.5 -111t128 -165t79 -202t26 -222.5zM1620 729q0 87 -14.5 168.5t-48.5 158t-84 133.5t-127 91.5t-172 34.5t-172 -34.5t-127.5 -91.5t-84.5 -133.5t-48.5 -158t-14.5 -168.5t14.5 -168.5t48.5 -158
t84.5 -133.5t127.5 -91.5t172 -34.5t172 34.5t127 91.5t84 133.5t48.5 158t14.5 168.5z" />
    <glyph glyph-name="afii10049" unicode="&#x42f;" horiz-adv-x="1062" 
d="M946 84q0 -44 -24.5 -70t-65.5 -26t-65.5 26t-24.5 70v555l-557 -610q-36 -41 -82 -41q-34 0 -58 20t-24 49q0 44 35 82l465 510l-78 2q-84 2 -154 26t-125.5 72t-86.5 128.5t-31 187.5q0 87 37.5 161.5t99.5 124.5t142.5 78.5t166.5 28.5h334q49 0 72.5 -27t23.5 -71
v-1276zM766 784v519h-242q-123 0 -198.5 -72.5t-75.5 -177.5q0 -141 64.5 -205t205.5 -64h246z" />
    <glyph glyph-name="afii10065" unicode="&#x430;" horiz-adv-x="1056" 
d="M938 84q0 -44 -24.5 -70t-65.5 -26t-65.5 26t-24.5 70v43l-4 4q-112 -143 -301 -143q-76 0 -142.5 19t-119.5 56.5t-84 100t-31 143.5q0 71 22.5 127.5t58.5 94t91.5 65.5t109.5 43t125 23.5t126.5 11t125.5 2.5h25v135q0 67 -51.5 102t-141.5 35q-48 0 -87 -11.5
t-64 -27.5t-45.5 -32t-41.5 -27.5t-42 -11.5q-39 0 -60.5 21t-21.5 52q0 53 60 99t142.5 70t159.5 24q179 0 275 -78.5t96 -228.5v-711zM760 432v103h-39q-76 0 -116 -1.5t-104.5 -7t-99.5 -20.5t-73.5 -39t-55 -64.5t-16.5 -95.5q0 -57 33.5 -95t83 -53.5t112.5 -15.5
q120 0 197.5 75.5t77.5 213.5z" />
    <glyph glyph-name="afii10066" unicode="&#x431;" horiz-adv-x="1101" 
d="M850 545q0 58 -9.5 112.5t-32.5 107.5t-56 93t-85 64t-116 24t-116 -24t-85 -64t-56 -93t-32.5 -107.5t-9.5 -112.5t9.5 -113t32.5 -108t56 -92.5t85 -64t116 -24.5t116 24.5t85 64t56 92.5t32.5 108t9.5 113zM240 928h4q39 79 126 126.5t181 47.5q90 0 168 -30
t134.5 -83t96.5 -123.5t60 -152t20 -168.5q0 -148 -54.5 -272.5t-165.5 -204.5t-259 -80q-128 0 -230.5 61t-162.5 166q-13 23 -24 49.5t-19 50t-14.5 54.5t-10.5 52.5t-7 56t-4.5 52.5t-2 53.5t-0.5 47.5v47.5v40.5q0 176 41 314t112 212q35 36 65.5 58t85.5 47t141.5 41
t209.5 26q33 3 68 28t63 25q31 0 52.5 -23t21.5 -52q0 -49 -45 -88t-121 -43q-305 -19 -420 -105q-53 -40 -75 -94t-35 -137z" />
    <glyph glyph-name="afii10067" unicode="&#x432;" horiz-adv-x="1044" 
d="M977 317q0 -134 -95.5 -225.5t-260.5 -91.5h-412q-41 0 -65.5 26t-24.5 70v897q0 44 24.5 70.5t65.5 26.5h389q136 0 215.5 -80t79.5 -181q0 -88 -42.5 -152.5t-109.5 -86.5v-2q100 -11 168 -87.5t68 -183.5zM713 799q0 62 -37 100.5t-109 38.5h-268v-287h266
q68 0 108 42.5t40 105.5zM797 328q0 76 -51 126t-138 50h-309v-352h303q86 0 140.5 48.5t54.5 127.5z" />
    <glyph glyph-name="afii10068" unicode="&#x433;" horiz-adv-x="864" 
d="M176 993q0 44 25.5 70.5t64.5 26.5h492q44 0 67 -20.5t23 -57.5t-23 -57.5t-67 -20.5h-402v-850q0 -44 -24.5 -70t-65.5 -26t-65.5 26t-24.5 70v909z" />
    <glyph glyph-name="afii10069" unicode="&#x434;" horiz-adv-x="1175" 
d="M1163 -242q0 -44 -24.5 -70t-65.5 -26t-65.5 26t-24.5 70v242h-784v-242q0 -44 -24.5 -70t-65.5 -26t-66 26t-25 70v301q0 44 25 70.5t66 26.5h69q64 170 86.5 367t22.5 470q0 40 25 68.5t65 28.5h516q41 0 65.5 -26.5t24.5 -70.5v-837h90q41 0 65.5 -26.5t24.5 -70.5
v-301zM803 156v778h-338q0 -470 -103 -778h441z" />
    <glyph glyph-name="afii10070" unicode="&#x435;" horiz-adv-x="1064" 
d="M911 475h-678q0 -144 87 -238t235 -94q67 0 123 15t91.5 37t63.5 44t50.5 37t40.5 15q26 0 45.5 -21.5t19.5 -58.5q0 -44 -63.5 -96t-167.5 -89.5t-205 -37.5q-126 0 -224 46t-157 125t-89 177t-30 209t34 211.5t96 177.5t155.5 122.5t204.5 45.5q107 0 197.5 -46
t149 -121.5t90.5 -170t32 -193.5q0 -50 -22.5 -73t-78.5 -23zM233 610h598q0 61 -17.5 118.5t-51.5 106.5t-90.5 79.5t-128.5 31.5q-80 1 -141 -27t-96 -78t-53 -107.5t-20 -123.5z" />
    <glyph glyph-name="afii10072" unicode="&#x436;" horiz-adv-x="1531" 
d="M1495 59q0 -30 -23 -50.5t-53 -20.5q-29 0 -51.5 13.5t-52.5 41.5l-461 430v-389q0 -44 -24.5 -70t-65.5 -26t-65.5 26t-24.5 70v389l-461 -430q-30 -28 -52.5 -41.5t-51.5 -13.5q-30 0 -53 20.5t-23 50.5q0 53 43 93l452 423l-401 369q-45 42 -45 78q0 35 20.5 57.5
t55.5 22.5q43 0 102 -55l414 -379v338q0 44 24.5 70t65.5 26t65.5 -26t24.5 -70v-338l414 379q59 55 102 55q35 0 55.5 -22.5t20.5 -57.5q0 -36 -45 -78l-402 -369l453 -423q43 -40 43 -93z" />
    <glyph glyph-name="afii10073" unicode="&#x437;" horiz-adv-x="921" 
d="M850 334q0 -69 -22.5 -127t-61 -98t-90.5 -67.5t-110 -40.5t-120 -13q-83 0 -159 19.5t-128 49.5t-83 67t-31 71q0 36 22 58.5t52 22.5q25 0 58.5 -21t64.5 -45.5t87.5 -45.5t123.5 -21q99 0 159 48.5t60 132.5q0 170 -217 170q-38 0 -61 19.5t-23 57.5q0 36 20 52.5
t60 23.5q84 12 114 41q23 24 40.5 58t17.5 65q0 65 -43.5 100t-114.5 35q-58 0 -103.5 -17t-68 -38t-49 -38t-51.5 -17q-39 0 -60.5 21t-21.5 52q0 53 60.5 99t143.5 70t160 24q152 0 242 -80.5t90 -210.5q0 -61 -33.5 -118.5t-89.5 -100.5q79 -35 122.5 -102.5t43.5 -155.5
z" />
    <glyph glyph-name="afii10074" unicode="&#x438;" horiz-adv-x="1101" 
d="M983 84q0 -44 -24.5 -70t-65.5 -26t-65.5 26t-24.5 70v682h-4l-500 -717q-2 -3 -11 -16t-11.5 -15.5t-11 -11.5t-15 -11t-17.5 -4.5t-24 -2.5q-41 0 -65.5 26t-24.5 70v922q0 44 24.5 70t65.5 26t65.5 -26t24.5 -70v-680h4l500 716l8 12t8 11.5t8 9.5t9.5 9.5t10 7
t12.5 6t15 3t19 1.5q41 0 65.5 -26t24.5 -70v-922z" />
    <glyph glyph-name="afii10075" unicode="&#x439;" horiz-adv-x="1101" 
d="M983 84q0 -44 -24.5 -70t-65.5 -26t-65.5 26t-24.5 70v682h-4l-500 -717q-2 -3 -11 -16t-11.5 -15.5t-11 -11.5t-15 -11t-17.5 -4.5t-24 -2.5q-41 0 -65.5 26t-24.5 70v922q0 44 24.5 70t65.5 26t65.5 -26t24.5 -70v-680h4l500 716l8 12t8 11.5t8 9.5t9.5 9.5t10 7
t12.5 6t15 3t19 1.5q41 0 65.5 -26t24.5 -70v-922zM281 1397q0 32 17 52.5t46 20.5q17 0 35 -12t35 -29t36 -34t47 -29t60 -12t60 12t47 29t36 34t35 29t35 12q29 0 46.5 -21t17.5 -52q0 -84 -91 -141.5t-186 -57.5q-59 0 -121.5 23.5t-108.5 71t-46 104.5z" />
    <glyph glyph-name="afii10076" unicode="&#x43a;" horiz-adv-x="976" 
d="M958 59q0 -30 -22.5 -50.5t-52.5 -20.5q-20 0 -40 9t-31.5 18t-33.5 28l-479 430v-389q0 -44 -24.5 -70t-65.5 -26t-65.5 26t-24.5 70v922q0 44 24.5 70t65.5 26t65.5 -26t24.5 -70v-336l432 377q62 55 103 55q34 0 54.5 -22.5t20.5 -57.5q0 -38 -45 -78l-422 -369
l473 -423q43 -40 43 -93z" />
    <glyph glyph-name="afii10077" unicode="&#x43b;" horiz-adv-x="1101" 
d="M983 84q0 -44 -24.5 -70t-65.5 -26t-65.5 26t-24.5 70v850h-348v-356q0 -145 -29.5 -259.5t-79.5 -184t-113.5 -105t-134.5 -35.5q-88 0 -88 80q0 40 23.5 61t64.5 21q69 0 122.5 109t53.5 313v413q0 48 25 73.5t66 25.5h528q41 0 65.5 -26.5t24.5 -70.5v-909z" />
    <glyph glyph-name="afii10078" unicode="&#x43c;" horiz-adv-x="1425" 
d="M1366 61q0 -28 -26.5 -50.5t-69.5 -22.5q-29 0 -54 26t-32 66l-144 723h-4l-217 -697q-20 -64 -40.5 -91t-65.5 -27t-66 27t-41 91l-217 697h-4l-143 -723q-8 -40 -35.5 -66t-63.5 -26q-41 0 -62.5 23.5t-21.5 56.5q0 20 11 69l198 871q10 46 38 70t67 24q80 0 108 -94
l230 -736h4l229 736q28 94 109 94q39 0 66.5 -24.5t37.5 -69.5l199 -871q10 -45 10 -76z" />
    <glyph glyph-name="afii10079" unicode="&#x43d;" horiz-adv-x="1101" 
d="M299 500v-416q0 -44 -24.5 -70t-65.5 -26t-65.5 26t-24.5 70v922q0 44 24.5 70t65.5 26t65.5 -26t24.5 -70v-351h504v351q0 44 24.5 70t65.5 26t65.5 -26t24.5 -70v-922q0 -44 -24.5 -70t-65.5 -26t-65.5 26t-24.5 70v416h-504z" />
    <glyph glyph-name="afii10080" unicode="&#x43e;" horiz-adv-x="1101" 
d="M72 545q0 148 54.5 272.5t165.5 204.5t259 80t259 -80t165.5 -204.5t54.5 -272.5t-54.5 -272.5t-165.5 -204.5t-259 -80t-259 80t-165.5 204.5t-54.5 272.5zM252 545q0 -58 9.5 -113t32.5 -108t56 -92.5t85 -64t116 -24.5t116 24.5t85 64t56 92.5t32.5 108t9.5 113
t-9.5 112.5t-32.5 107.5t-56 93t-85 64t-116 24t-116 -24t-85 -64t-56 -93t-32.5 -107.5t-9.5 -112.5z" />
    <glyph glyph-name="afii10081" unicode="&#x43f;" horiz-adv-x="1101" 
d="M983 84q0 -44 -24.5 -70t-65.5 -26t-65.5 26t-24.5 70v850h-504v-850q0 -44 -24.5 -70t-65.5 -26t-65.5 26t-24.5 70v909q0 44 24.5 70.5t65.5 26.5h684q41 0 65.5 -26.5t24.5 -70.5v-909z" />
    <glyph glyph-name="afii10082" unicode="&#x440;" horiz-adv-x="1138" 
d="M289 545q0 -58 9.5 -113t32.5 -108t56 -92.5t85 -64t116 -24.5t116 24.5t85 64t56 92.5t32.5 108t9.5 113t-9.5 112.5t-32.5 107.5t-56 93t-85 64t-116 24t-116 -24t-85 -64t-56 -93t-32.5 -107.5t-9.5 -112.5zM127 -346v1352q0 44 24.5 70t65.5 26t65.5 -26t24.5 -70
v-54h4q78 150 291 150q107 0 196.5 -46.5t147.5 -124t89.5 -177.5t31.5 -209t-31.5 -209t-89.5 -177.5t-147.5 -124t-196.5 -46.5q-98 0 -174 43.5t-117 103.5h-4v-481q0 -44 -24.5 -70t-65.5 -26t-65.5 26t-24.5 70z" />
    <glyph glyph-name="afii10083" unicode="&#x441;" 
d="M72 545q0 88 19 169t58.5 152t96.5 123.5t138.5 82.5t178.5 30q134 0 213.5 -39.5t79.5 -97.5q0 -29 -21.5 -52.5t-52.5 -23.5q-28 0 -57.5 14.5t-69 28.5t-92.5 14q-80 0 -142 -36t-97.5 -96t-53.5 -128.5t-18 -140.5t18 -141t53.5 -128.5t97.5 -96t142 -36.5
q55 0 97 15.5t70 31t50 15.5q32 0 51 -20t19 -56q0 -55 -77.5 -98t-209.5 -43q-97 0 -178.5 30t-138.5 82.5t-96.5 123.5t-58.5 152t-19 169z" />
    <glyph glyph-name="afii10084" unicode="&#x442;" 
d="M807 1090q44 0 67 -20.5t23 -57.5t-23 -57.5t-67 -20.5h-262v-850q0 -44 -24.5 -70t-65.5 -26t-65.5 26t-24.5 70v850h-263q-44 0 -67 20.5t-23 57.5t23 57.5t67 20.5h705z" />
    <glyph glyph-name="afii10085" unicode="&#x443;" 
d="M367 39l-308 887q-24 73 -24 100q0 33 25 54.5t57 21.5q33 0 57 -19t33 -49l250 -747h4l246 747q21 68 86 68q32 0 56.5 -21.5t24.5 -54.5q0 -27 -24 -100l-455 -1301q-24 -67 -88 -67q-32 0 -57 21t-25 54q0 29 27 101z" />
    <glyph glyph-name="afii10086" unicode="&#x444;" horiz-adv-x="1720" 
d="M1657 545q0 -109 -30 -209t-84 -177.5t-138 -124t-184 -46.5q-86 0 -154 39t-111 94h-4v-467q0 -44 -24.5 -70t-65.5 -26t-65.5 26t-24.5 70v467h-4q-43 -56 -110.5 -94.5t-153.5 -38.5q-100 0 -184 46.5t-138 124t-84 177.5t-30 209t30 209t84 177.5t138 124t184 46.5
q186 0 264 -131h4v403q0 44 24.5 70t65.5 26t65.5 -26t24.5 -70v-403h4q78 131 265 131q100 0 184 -46.5t138 -124t84 -177.5t30 -209zM1477 545q0 58 -9 112.5t-30.5 107.5t-53.5 93t-81 64t-109 24q-170 0 -242 -180v-440q74 -183 242 -183q60 0 109 24.5t81 64t53.5 92.5
t30.5 108t9 113zM772 326v440q-72 180 -242 180q-75 0 -131.5 -36t-88 -96t-47 -128t-15.5 -141t15.5 -141t47 -128.5t88 -96.5t131.5 -36q168 0 242 183z" />
    <glyph glyph-name="afii10087" unicode="&#x445;" horiz-adv-x="950" 
d="M49 156l322 422l-283 370q-31 39 -31 72q0 34 22 58t54 24q46 0 78 -41l264 -352l264 352q32 41 78 41q32 0 54 -24t22 -58q0 -33 -31 -72l-282 -370l321 -422q37 -50 37 -86q0 -34 -23.5 -58t-58.5 -24q-53 0 -80 41l-301 417l-301 -417q-27 -41 -80 -41q-35 0 -58.5 24
t-23.5 58q0 36 37 86z" />
    <glyph glyph-name="afii10088" unicode="&#x446;" horiz-adv-x="1175" 
d="M1163 -242q0 -44 -24.5 -70t-65.5 -26t-65.5 26t-24.5 70v242h-774q-41 0 -65.5 26t-24.5 70v910q0 44 24.5 70t65.5 26t65.5 -26t24.5 -70v-850h504v850q0 44 24.5 70t65.5 26t65.5 -26t24.5 -70v-850h90q41 0 65.5 -26.5t24.5 -70.5v-301z" />
    <glyph glyph-name="afii10089" unicode="&#x447;" horiz-adv-x="1024" 
d="M905 84q0 -44 -24.5 -70t-65.5 -26t-65.5 26t-24.5 70v395h-217q-162 0 -275.5 90.5t-113.5 235.5v201q0 44 24.5 70t65.5 26t65.5 -26t24.5 -70v-218q0 -72 63.5 -112.5t147.5 -40.5h215v371q0 44 24.5 70t65.5 26t65.5 -26t24.5 -70v-922z" />
    <glyph glyph-name="afii10090" unicode="&#x448;" horiz-adv-x="1613" 
d="M209 0q-41 0 -65.5 26t-24.5 70v910q0 44 24.5 70t65.5 26t65.5 -26t24.5 -70v-850h422v850q0 44 24.5 70t65.5 26t65.5 -26t24.5 -70v-850h422v850q0 44 24.5 70t65.5 26t65.5 -26t24.5 -70v-910q0 -44 -24.5 -70t-65.5 -26h-1204z" />
    <glyph glyph-name="afii10091" unicode="&#x449;" horiz-adv-x="1708" 
d="M209 0q-41 0 -65.5 26t-24.5 70v910q0 44 24.5 70t65.5 26t65.5 -26t24.5 -70v-850h422v850q0 44 24.5 70t65.5 26t65.5 -26t24.5 -70v-850h422v850q0 44 24.5 70t65.5 26t65.5 -26t24.5 -70v-850h90q41 0 65.5 -26.5t24.5 -70.5v-301q0 -44 -24.5 -70t-65.5 -26
t-65.5 26t-24.5 70v242h-1294z" />
    <glyph glyph-name="afii10092" unicode="&#x44a;" horiz-adv-x="1175" 
d="M1133 344q0 -151 -99 -247.5t-274 -96.5h-326q-41 0 -65.5 26t-24.5 70v838h-242q-44 0 -67 20.5t-23 57.5t23 57.5t67 20.5h332q41 0 65.5 -26.5t24.5 -70.5v-321h230q184 0 281.5 -91t97.5 -237zM952 346q0 79 -54.5 125.5t-152.5 46.5h-221v-362h215q96 0 154.5 50
t58.5 140z" />
    <glyph glyph-name="afii10093" unicode="&#x44b;" horiz-adv-x="1339" 
d="M727 346q0 79 -54.5 125.5t-152.5 46.5h-221v-362h215q96 0 154.5 50t58.5 140zM299 672h229q184 0 281.5 -91t97.5 -237q0 -151 -98.5 -247.5t-273.5 -96.5h-326q-41 0 -65.5 26t-24.5 70v910q0 44 24.5 70t65.5 26t65.5 -26t24.5 -70v-334zM1241 1006v-922
q0 -44 -24.5 -70t-65.5 -26t-65.5 26t-24.5 70v922q0 44 24.5 70t65.5 26t65.5 -26t24.5 -70z" />
    <glyph glyph-name="afii10094" unicode="&#x44c;" horiz-adv-x="950" 
d="M727 346q0 79 -54.5 125.5t-152.5 46.5h-221v-362h215q96 0 154.5 50t58.5 140zM299 672h229q184 0 281.5 -91t97.5 -237q0 -151 -98.5 -247.5t-273.5 -96.5h-326q-41 0 -65.5 26t-24.5 70v910q0 44 24.5 70t65.5 26t65.5 -26t24.5 -70v-334z" />
    <glyph glyph-name="afii10095" unicode="&#x44d;" 
d="M856 545q0 -88 -19 -169t-58.5 -152t-96.5 -123.5t-138.5 -82.5t-178.5 -30q-132 0 -209.5 43t-77.5 98q0 36 19 56t50 20q22 0 50.5 -15.5t70.5 -31t97 -15.5q74 0 132.5 31t95 83.5t56.5 114t25 128.5h-330q-44 0 -67 20.5t-23 57.5q0 77 90 77h322
q-24 126 -99.5 208.5t-201.5 82.5q-53 0 -93 -14t-69.5 -28.5t-57.5 -14.5q-31 0 -52 23.5t-21 52.5q0 58 79.5 97.5t213.5 39.5q97 0 178.5 -30t138.5 -82.5t96.5 -123.5t58.5 -152t19 -169z" />
    <glyph glyph-name="afii10096" unicode="&#x44e;" horiz-adv-x="1531" 
d="M1460 545q0 -148 -54.5 -272.5t-165.5 -204.5t-259 -80q-106 0 -194.5 42t-147.5 113t-94 163t-41 194h-205v-416q0 -44 -24.5 -70t-65.5 -26t-65.5 26t-24.5 70v922q0 44 24.5 70t65.5 26t65.5 -26t24.5 -70v-351h211q31 193 155 320t316 127q148 0 259 -80
t165.5 -204.5t54.5 -272.5zM1280 545q0 58 -9.5 112.5t-32.5 107.5t-56 93t-85 64t-116 24t-116 -24t-85 -64t-56 -93t-32.5 -107.5t-9.5 -112.5t9.5 -113t32.5 -108t56 -92.5t85 -64t116 -24.5t116 24.5t85 64t56 92.5t32.5 108t9.5 113z" />
    <glyph glyph-name="afii10097" unicode="&#x44f;" horiz-adv-x="983" 
d="M864 84q0 -44 -24.5 -70t-65.5 -26t-65.5 26t-24.5 70v399h-14l-455 -458q-37 -37 -78 -37q-36 0 -60 21t-24 50q0 39 31 70l350 354l-57 2q-63 2 -115 20t-94 53.5t-65 96t-23 140.5q0 129 100 212t234 83h360q41 0 65.5 -26.5t24.5 -70.5v-909zM684 629v311h-254
q-76 0 -123 -42.5t-47 -104.5q0 -86 40 -125t128 -39h256z" />
    <glyph glyph-name="afii10071" unicode="&#x451;" horiz-adv-x="1064" 
d="M911 475h-678q0 -144 87 -238t235 -94q67 0 123 15t91.5 37t63.5 44t50.5 37t40.5 15q26 0 45.5 -21.5t19.5 -58.5q0 -44 -63.5 -96t-167.5 -89.5t-205 -37.5q-126 0 -224 46t-157 125t-89 177t-30 209t34 211.5t96 177.5t155.5 122.5t204.5 45.5q107 0 197.5 -46
t149 -121.5t90.5 -170t32 -193.5q0 -50 -22.5 -73t-78.5 -23zM233 610h598q0 61 -17.5 118.5t-51.5 106.5t-90.5 79.5t-128.5 31.5q-80 1 -141 -27t-96 -78t-53 -107.5t-20 -123.5zM231 1348q0 46 32.5 78t78.5 32t78.5 -32t32.5 -78t-32.5 -78.5t-78.5 -32.5t-78.5 32.5
t-32.5 78.5zM612 1348q0 46 32.5 78t78.5 32t78.5 -32t32.5 -78t-32.5 -78.5t-78.5 -32.5t-78.5 32.5t-32.5 78.5z" />
    <glyph glyph-name="afii10099" unicode="&#x452;" horiz-adv-x="1120" 
d="M1038 408q0 -473 -399 -809q-49 -41 -84 -41q-25 0 -49.5 23t-24.5 61q0 21 15.5 40.5t56.5 55.5q305 271 305 608v127q0 68 -22.5 121.5t-59.5 84.5t-80 46.5t-90 15.5t-90 -15.5t-80 -46.5t-59.5 -84.5t-22.5 -121.5v-389q0 -44 -24.5 -70t-65.5 -26t-65.5 26t-24.5 70
v973h-70q-44 0 -67 20.5t-23 57.5q0 77 90 77h70v162q0 44 24.5 70t65.5 26t65.5 -26t24.5 -70v-162h363q90 0 90 -77q0 -37 -23 -57.5t-67 -20.5h-363v-299l4 -4q112 143 301 143q53 0 104 -13t101.5 -44.5t88.5 -77.5t61.5 -118t23.5 -161v-75z" />
    <glyph glyph-name="afii10100" unicode="&#x453;" horiz-adv-x="864" 
d="M713 1309l-236 -97q-45 -18 -69 -18q-36 0 -57 29t-21 57q0 47 71 76l236 96q45 18 70 18q36 0 56.5 -28.5t20.5 -57.5q0 -46 -71 -75zM176 993q0 44 25.5 70.5t64.5 26.5h492q44 0 67 -20.5t23 -57.5t-23 -57.5t-67 -20.5h-402v-850q0 -44 -24.5 -70t-65.5 -26t-65.5 26
t-24.5 70v909z" />
    <glyph glyph-name="afii10101" unicode="&#x454;" 
d="M862 965q0 -29 -21.5 -52.5t-52.5 -23.5q-28 0 -57.5 14.5t-69 28.5t-92.5 14q-126 0 -201.5 -82.5t-99.5 -208.5h322q90 0 90 -77q0 -37 -23 -57.5t-67 -20.5h-330q5 -67 25 -128.5t56.5 -114t95 -83.5t132.5 -31q55 0 97 15.5t70 31t50 15.5q32 0 51 -20t19 -56
q0 -55 -77.5 -98t-209.5 -43q-97 0 -178.5 30t-138.5 82.5t-96.5 123.5t-58.5 152t-19 169t19 169t58.5 152t96.5 123.5t138.5 82.5t178.5 30q134 0 213.5 -39.5t79.5 -97.5z" />
    <glyph glyph-name="afii10102" unicode="&#x455;" 
d="M94 795q0 73 32 132.5t85.5 97t119 57.5t134.5 20q77 0 159.5 -24t142.5 -70t60 -99q0 -31 -21.5 -52t-60.5 -21q-21 0 -42 11.5t-41.5 27.5t-45.5 32t-64 27.5t-87 11.5q-81 0 -136 -35.5t-55 -101.5q0 -38 32 -69.5t83.5 -55t113.5 -46.5t124 -51t113.5 -62t83.5 -85.5
t32 -115.5q0 -109 -58 -187t-146 -113.5t-193 -35.5q-164 0 -287 67t-123 140q0 36 22 58.5t52 22.5q25 0 59.5 -21t67 -45.5t90.5 -45.5t125 -21q94 0 152.5 44.5t58.5 103.5q0 43 -32 78.5t-83.5 62t-113.5 51.5t-124 54t-113.5 62.5t-83.5 84t-32 111.5z" />
    <glyph glyph-name="afii10103" unicode="&#x456;" horiz-adv-x="417" 
d="M299 1006v-922q0 -44 -24.5 -70t-65.5 -26t-65.5 26t-24.5 70v922q0 44 24.5 70t65.5 26t65.5 -26t24.5 -70zM98 1360q0 46 32.5 78t78.5 32t78 -32t32 -78t-32 -78.5t-78 -32.5t-78.5 32.5t-32.5 78.5z" />
    <glyph glyph-name="afii10104" unicode="&#x457;" horiz-adv-x="417" 
d="M299 1006v-922q0 -44 -24.5 -70t-65.5 -26t-65.5 26t-24.5 70v922q0 44 24.5 70t65.5 26t65.5 -26t24.5 -70zM-92 1348q0 46 32 78t78 32t78.5 -32t32.5 -78t-32.5 -78.5t-78.5 -32.5t-78 32.5t-32 78.5zM289 1348q0 46 32 78t78 32t78.5 -32t32.5 -78t-32.5 -78.5
t-78.5 -32.5t-78 32.5t-32 78.5z" />
    <glyph glyph-name="afii10105" unicode="&#x458;" horiz-adv-x="417" 
d="M299 1006v-1352q0 -44 -24.5 -70t-65.5 -26t-65.5 26t-24.5 70v1352q0 44 24.5 70t65.5 26t65.5 -26t24.5 -70zM98 1360q0 46 32.5 78t78.5 32t78 -32t32 -78t-32 -78.5t-78 -32.5t-78.5 32.5t-32.5 78.5z" />
    <glyph glyph-name="afii10106" unicode="&#x459;" horiz-adv-x="1662" 
d="M1591 322q0 -150 -98 -242t-274 -92h-326q-39 0 -64.5 26.5t-25.5 69.5v850h-348v-377q0 -145 -29 -256t-80 -176.5t-113.5 -98t-134.5 -32.5q-88 0 -88 80q0 40 23.5 61t64.5 21q71 0 123.5 99.5t52.5 301.5v434q0 48 25 73.5t66 25.5h528q41 0 65.5 -26.5t24.5 -70.5
v-350h229q184 0 281.5 -88t97.5 -233zM1411 324q0 78 -53.5 120.5t-153.5 42.5h-221v-344h215q97 0 155 46t58 135z" />
    <glyph glyph-name="afii10107" unicode="&#x45a;" horiz-adv-x="1628" 
d="M1559 334q0 -150 -98.5 -242t-274.5 -92h-326q-39 0 -64.5 26.5t-25.5 69.5v404h-471v-416q0 -44 -24.5 -70t-65.5 -26t-65.5 26t-24.5 70v922q0 44 24.5 70t65.5 26t65.5 -26t24.5 -70v-351h471v351q0 44 24.5 70t65.5 26t65.5 -26t24.5 -70v-351h230q184 0 281.5 -88
t97.5 -233zM1378 336q0 78 -54 121t-153 43h-221v-344h215q98 0 155.5 45.5t57.5 134.5z" />
    <glyph glyph-name="afii10108" unicode="&#x45b;" horiz-adv-x="1157" 
d="M174 1057h-70q-44 0 -67 20.5t-23 57.5q0 77 90 77h70v162q0 44 24.5 70t65.5 26t65.5 -26t24.5 -70v-162h363q90 0 90 -77q0 -37 -23 -57.5t-67 -20.5h-363v-299l4 -4q112 143 301 143q53 0 104 -13t101.5 -44.5t88.5 -77.5t61.5 -118t23.5 -161v-399q0 -44 -24.5 -70
t-65.5 -26t-65.5 26t-24.5 70v389q0 68 -22.5 121.5t-59.5 84.5t-80 46.5t-90 15.5t-90 -15.5t-80 -46.5t-59.5 -84.5t-22.5 -121.5v-389q0 -44 -24.5 -70t-65.5 -26t-65.5 26t-24.5 70v973z" />
    <glyph glyph-name="afii10109" unicode="&#x45c;" horiz-adv-x="976" 
d="M692 1309l-235 -97q-45 -18 -70 -18q-36 0 -57 29t-21 57q0 47 72 76l235 96q45 18 70 18q36 0 57 -29t21 -57q0 -46 -72 -75zM958 59q0 -30 -22.5 -50.5t-52.5 -20.5q-20 0 -40 9t-31.5 18t-33.5 28l-479 430v-389q0 -44 -24.5 -70t-65.5 -26t-65.5 26t-24.5 70v922
q0 44 24.5 70t65.5 26t65.5 -26t24.5 -70v-336l432 377q62 55 103 55q34 0 54.5 -22.5t20.5 -57.5q0 -38 -45 -78l-422 -369l473 -423q43 -40 43 -93z" />
    <glyph glyph-name="afii10110" unicode="&#x45e;" 
d="M176 1397q0 31 17.5 52t46.5 21q17 0 35 -12t35 -29t36 -34t47 -29t60 -12t60 12t47 29t36 34t35 29t35 12q29 0 46 -20.5t17 -52.5q0 -57 -46 -104.5t-108.5 -71t-121.5 -23.5q-95 0 -186 57.5t-91 141.5zM367 39l-308 887q-24 73 -24 100q0 33 25 54.5t57 21.5
q33 0 57 -19t33 -49l250 -747h4l246 747q21 68 86 68q32 0 56.5 -21.5t24.5 -54.5q0 -27 -24 -100l-455 -1301q-24 -67 -88 -67q-32 0 -57 21t-25 54q0 29 27 101z" />
    <glyph glyph-name="afii10193" unicode="&#x45f;" horiz-adv-x="1175" 
d="M983 96q0 -44 -24.5 -70t-65.5 -26h-242v-293q0 -44 -24.5 -70t-65.5 -26t-65.5 26t-24.5 70v293h-262q-41 0 -65.5 26t-24.5 70v910q0 44 24.5 70t65.5 26t65.5 -26t24.5 -70v-850h504v850q0 44 24.5 70t65.5 26t65.5 -26t24.5 -70v-910z" />
    <glyph glyph-name="afii10050" unicode="&#x490;" horiz-adv-x="833" 
d="M815 1374q0 -41 -24 -62.5t-64 -21.5h-428v-1206q0 -44 -24.5 -70t-65.5 -26t-65.5 26t-24.5 70v1276q0 44 23.5 71t72.5 27h420v197q0 44 24.5 70t65.5 26t65.5 -26t24.5 -70v-281z" />
    <glyph glyph-name="afii10098" unicode="&#x491;" horiz-adv-x="864" 
d="M848 1012q0 -37 -23 -57.5t-67 -20.5h-402v-850q0 -44 -24.5 -70t-65.5 -26t-65.5 26t-24.5 70v909q0 44 25.5 70.5t64.5 26.5h402v182q0 44 24.5 70t65.5 26t65.5 -26t24.5 -70v-260z" />
    <glyph glyph-name="endash" unicode="&#x2013;" horiz-adv-x="1024" 
d="M946 471h-868q-32 0 -55 23t-23 55t23 55t55 23h868q32 0 55 -23t23 -55t-23 -55t-55 -23z" />
    <glyph glyph-name="emdash" unicode="&#x2014;" horiz-adv-x="2048" 
d="M0 627h2048q32 0 55 -23t23 -55t-23 -55t-55 -23h-2048q-32 0 -55 23t-23 55t23 55t55 23z" />
    <glyph glyph-name="quoteleft" unicode="&#x2018;" horiz-adv-x="417" 
d="M74 1169l114 226q18 36 39.5 55.5t57.5 19.5q33 0 57.5 -22t24.5 -55q0 -29 -23 -76l-115 -225q-19 -37 -39.5 -56.5t-56.5 -19.5q-33 0 -57.5 22.5t-24.5 55.5q0 28 23 75z" />
    <glyph glyph-name="quoteright" unicode="&#x2019;" horiz-adv-x="417" 
d="M74 1169l114 226q18 36 39.5 55.5t57.5 19.5q33 0 57.5 -22t24.5 -55q0 -29 -23 -76l-115 -225q-19 -37 -39.5 -56.5t-56.5 -19.5q-33 0 -57.5 22.5t-24.5 55.5q0 28 23 75z" />
    <glyph glyph-name="quotesinglbase" unicode="&#x201a;" horiz-adv-x="417" 
d="M74 -104l114 225q19 36 40 56t57 20q33 0 57.5 -22.5t24.5 -55.5q0 -29 -23 -76l-115 -225q-19 -37 -39.5 -56.5t-56.5 -19.5q-33 0 -57.5 22.5t-24.5 55.5q0 29 23 76z" />
    <glyph glyph-name="quotedblleft" unicode="&#x201c;" horiz-adv-x="684" 
d="M352 1169l115 226q19 36 39.5 55.5t56.5 19.5q33 0 57.5 -22t24.5 -55q0 -31 -22 -76l-115 -225q-19 -37 -39.5 -56.5t-56.5 -19.5q-33 0 -57.5 22.5t-24.5 55.5q0 30 22 75zM61 1169l115 226q19 36 39.5 55.5t56.5 19.5q33 0 57.5 -22t24.5 -55q0 -31 -22 -76l-115 -225
q-19 -37 -39.5 -56.5t-56.5 -19.5q-33 0 -57.5 22.5t-24.5 55.5q0 30 22 75z" />
    <glyph glyph-name="quotedblright" unicode="&#x201d;" horiz-adv-x="684" 
d="M352 1169l115 226q19 36 39.5 55.5t56.5 19.5q33 0 57.5 -22t24.5 -55q0 -31 -22 -76l-115 -225q-19 -37 -39.5 -56.5t-56.5 -19.5q-33 0 -57.5 22.5t-24.5 55.5q0 30 22 75zM61 1169l115 226q19 36 39.5 55.5t56.5 19.5q33 0 57.5 -22t24.5 -55q0 -31 -22 -76l-115 -225
q-19 -37 -39.5 -56.5t-56.5 -19.5q-33 0 -57.5 22.5t-24.5 55.5q0 30 22 75z" />
    <glyph glyph-name="quotedblbase" unicode="&#x201e;" horiz-adv-x="684" 
d="M352 -104l115 225q19 37 39.5 56.5t56.5 19.5q33 0 57.5 -22.5t24.5 -55.5q0 -31 -22 -76l-115 -225q-19 -37 -39.5 -56.5t-56.5 -19.5q-33 0 -57.5 22.5t-24.5 55.5q0 31 22 76zM61 -104l115 225q19 37 39.5 56.5t56.5 19.5q33 0 57.5 -22.5t24.5 -55.5q0 -31 -22 -76
l-115 -225q-19 -37 -39.5 -56.5t-56.5 -19.5q-33 0 -57.5 22.5t-24.5 55.5q0 31 22 76z" />
    <glyph glyph-name="dagger" unicode="&#x2020;" horiz-adv-x="1253" 
d="M543 963v419q0 40 21.5 64t62.5 24t62.5 -24t21.5 -64v-419h399q40 0 64 -21.5t24 -62.5t-24 -62.5t-64 -21.5h-399v-1149q0 -40 -21.5 -64t-62.5 -24t-62.5 24t-21.5 64v1149h-400q-40 0 -64 21.5t-24 62.5t24 62.5t64 21.5h400z" />
    <glyph glyph-name="daggerdbl" unicode="&#x2021;" horiz-adv-x="1253" 
d="M543 193v643h-400q-40 0 -64 21.5t-24 62.5t24 62.5t64 21.5h400v378q0 40 21.5 64t62.5 24t62.5 -24t21.5 -64v-378h399q40 0 64 -21.5t24 -62.5t-24 -62.5t-64 -21.5h-399v-643h399q40 0 64 -21.5t24 -62.5t-24 -62.5t-64 -21.5h-399v-379q0 -40 -21.5 -64t-62.5 -24
t-62.5 24t-21.5 64v379h-400q-40 0 -64 21.5t-24 62.5t24 62.5t64 21.5h400z" />
    <glyph glyph-name="bullet" unicode="&#x2022;" horiz-adv-x="1024" 
d="M147 729q0 151 107 258t258 107t258 -107t107 -258t-107 -257.5t-258 -106.5t-258 106.5t-107 257.5z" />
    <glyph glyph-name="ellipsis" unicode="&#x2026;" horiz-adv-x="2048" 
d="M238 92q0 43 30.5 74t73.5 31t73.5 -31t30.5 -74t-30.5 -73.5t-73.5 -30.5t-73.5 30.5t-30.5 73.5zM920 92q0 43 30.5 74t73.5 31t73.5 -31t30.5 -74t-30.5 -73.5t-73.5 -30.5t-73.5 30.5t-30.5 73.5zM1602 92q0 43 30.5 74t73.5 31t73.5 -31t30.5 -74t-30.5 -73.5
t-73.5 -30.5t-73.5 30.5t-30.5 73.5z" />
    <glyph glyph-name="perthousand" unicode="&#x2030;" horiz-adv-x="2238" 
d="M432 119l545 1306q26 62 72 62q34 0 52.5 -17t18.5 -38q0 -29 -28 -93l-545 -1306q-14 -33 -31.5 -47.5t-44.5 -14.5q-32 0 -50 17t-18 39q0 23 29 92zM1116 -12q-99 0 -171 49t-106 126.5t-34 170.5t34 170.5t106 126.5t171 49t171 -49t106 -126.5t34 -170.5t-34 -170.5
t-106 -126.5t-171 -49zM1116 98q47 0 82.5 21t55 56.5t29 75.5t9.5 83t-9.5 83t-29 75t-55 56t-82.5 21t-82.5 -21t-55 -56t-29 -75t-9.5 -83t9.5 -83t29 -75.5t55 -56.5t82.5 -21zM406 778q-99 0 -171 49t-106.5 126.5t-34.5 170.5t34.5 170.5t106.5 126.5t171 49t171 -49
t106 -126.5t34 -170.5t-34 -170.5t-106 -126.5t-171 -49zM406 889q47 0 82.5 21t55 56t29 75t9.5 83t-9.5 83t-29 75.5t-55 56.5t-82.5 21q-62 0 -103.5 -37.5t-57.5 -88.5t-16 -110t16 -110t57.5 -88t103.5 -37zM1833 -12q-99 0 -171 49t-106 126.5t-34 170.5t34 170.5
t106 126.5t171 49t171 -49t106 -126.5t34 -170.5t-34 -170.5t-106 -126.5t-171 -49zM1833 98q47 0 82.5 21t55 56.5t29 75.5t9.5 83t-9.5 83t-29 75t-55 56t-82.5 21t-82.5 -21t-55 -56t-29 -75t-9.5 -83t9.5 -83t29 -75.5t55 -56.5t82.5 -21z" />
    <glyph glyph-name="guilsinglleft" unicode="&#x2039;" horiz-adv-x="530" 
d="M88 549l203 364q29 54 69 54q32 0 57 -19t25 -53q0 -25 -22 -64l-170 -282l170 -283q22 -39 22 -63q0 -34 -25 -53t-57 -19q-40 0 -69 53z" />
    <glyph glyph-name="guilsinglright" unicode="&#x203a;" horiz-adv-x="530" 
d="M111 266l170 283l-170 282q-23 41 -23 64q0 34 25 53t57 19q41 0 70 -54l202 -364l-202 -365q-29 -53 -70 -53q-32 0 -57 19t-25 53q0 22 23 63z" />
    <glyph glyph-name="Euro" unicode="&#x20ac;" horiz-adv-x="1097" 
d="M1012 1184h-41q-13 101 -83 151.5t-177 50.5q-87 0 -150 -35t-102.5 -104t-61.5 -159.5t-32 -213.5h540l-28 -77h-517q0 -9 -1 -32.5t-1 -33.5q0 -51 2 -67h461l-30 -78h-429q15 -249 104.5 -381.5t244.5 -132.5q101 0 172.5 50t87.5 157h41l-13 -166q-96 -123 -327 -123
q-450 0 -494 596h-137l29 78h98q-2 18 -2 71q0 7 1 30t1 32h-127l29 77h104q14 147 47 254t91 185.5t147.5 117.5t212.5 39q236 0 327 -116z" />
    <glyph glyph-name="afii61352" unicode="&#x2116;" horiz-adv-x="2041" 
d="M299 1141v-1057q0 -44 -24.5 -70t-65.5 -26t-65.5 26t-24.5 70v1280q0 106 82 106q39 0 64 -19t63 -75l737 -1059h4v1057q0 44 24.5 70t65.5 26t65.5 -26t24.5 -70v-1280q0 -106 -82 -106q-39 0 -64 19t-63 75l-737 1059h-4zM1341 580q0 143 86 238t226 95t225.5 -95
t85.5 -238q0 -145 -85.5 -240.5t-225.5 -95.5t-226 96t-86 240zM1489 580q0 -87 46 -150t118 -63t118 63t46 150q0 86 -46 148.5t-118 62.5t-118 -62.5t-46 -148.5zM1403 0q-25 0 -43.5 18t-18.5 43t18.5 43.5t43.5 18.5h500q25 0 43 -18.5t18 -43.5t-18 -43t-43 -18h-500z
" />
    <glyph glyph-name="trademark" unicode="&#x2122;" horiz-adv-x="2048" 
d="M379 698v625h-195q-65 0 -65 68q0 67 65 67h557q66 0 66 -67q0 -68 -66 -68h-194v-625q0 -40 -21.5 -64t-62.5 -24t-62.5 24t-21.5 64zM971 688v645q0 137 129 137q107 0 137 -79l205 -535l200 535q30 79 138 79q129 0 129 -137v-645q0 -32 -23 -55t-55 -23t-55 23
t-23 55v590h-4l-221 -592q-15 -41 -35.5 -58.5t-52.5 -17.5t-52.5 17.5t-35.5 58.5l-222 592h-4v-590q0 -32 -22.5 -55t-54.5 -23t-55 23t-23 55z" />
    <glyph glyph-name="radical" unicode="&#x221a;" horiz-adv-x="1124" 
d="M1073 1778l-285 -1809q-5 -30 -41 -36t-55 30l-459 946l-192 -94q-49 -22 -82 -5t-33 52q0 48 54 74l278 135q27 16 59 14t45 -28l345 -713l233 1454q4 30 23 46t43 16q30 0 51.5 -23t15.5 -59z" />
    <glyph glyph-name="infinity" unicode="&#x221e;" horiz-adv-x="1523" 
d="M1470 647q0 -77 -38.5 -151t-110.5 -124t-156 -50q-56 -1 -111.5 14.5t-94 35.5t-82 53.5t-64 53.5t-51.5 51q-41 -41 -69 -65.5t-82.5 -62.5t-118 -58.5t-134.5 -21.5q-127 -1 -216 101t-89 224q0 130 94.5 227t225.5 97q97 0 170.5 -41.5t218.5 -169.5q139 127 213 169
t172 42q131 0 227 -97t96 -227zM1307 635q0 61 -44.5 115.5t-115.5 54.5q-18 0 -32.5 -1t-30 -6t-25.5 -8t-27 -14t-24.5 -15.5t-28.5 -22.5t-29.5 -25.5t-35.5 -32t-40 -35.5q94 -100 145.5 -134t127.5 -34q62 0 111 46t49 112zM647 645q-118 101 -146 120q-60 40 -128 40
q-70 0 -113 -56t-43 -114q0 -68 50 -113t116 -45q32 0 58.5 7t45.5 15.5t49 35.5t48 45t63 65z" />
    <glyph glyph-name="approxequal" unicode="&#x2248;" horiz-adv-x="1228" 
d="M131 635q0 87 85 161t181 74q63 0 118.5 -18t123.5 -51q5 -3 20.5 -10.5t21 -10.5t19.5 -9.5t20.5 -9.5t18.5 -8t19 -7.5t17.5 -6t18 -5t15.5 -2.5t16 -1q24 0 44.5 14.5t36 35t31.5 41t38.5 35t50.5 13.5q30 -1 51 -19t21 -40q0 -87 -85.5 -161.5t-181.5 -74.5
q-44 0 -90 11.5t-75.5 24t-75.5 34.5q-5 2 -14 7q-125 63 -173 63q-24 0 -44.5 -14.5t-35.5 -35.5t-31 -41.5t-38.5 -35t-50.5 -13.5q-30 1 -51 19.5t-21 40.5zM131 225q0 87 85 161.5t181 74.5q44 0 90.5 -11.5t76 -24t75.5 -34.5q51 -26 71.5 -35.5t55.5 -21.5t59 -12
t44.5 14.5t36 35t31.5 41t38.5 35t50.5 13.5q30 -1 51 -19.5t21 -40.5q0 -87 -85.5 -161t-181.5 -74q-44 0 -90 11.5t-75.5 24t-75.5 34.5q-49 25 -71 35.5t-57 22t-59 11.5t-44.5 -14.5t-35.5 -35t-31 -41t-38.5 -35t-50.5 -13.5q-30 1 -51 19t-21 40z" />
    <glyph glyph-name="notequal" unicode="&#x2260;" horiz-adv-x="1638" 
d="M1561 729q0 -202 -99.5 -372.5t-270 -269.5t-372.5 -99q-151 0 -288.5 58.5t-236.5 157.5t-157.5 236.5t-58.5 288.5t58.5 288.5t157.5 236.5t236.5 157.5t288.5 58.5q202 0 372.5 -99t270 -269.5t99.5 -372.5zM1393 729q0 119 -46.5 228t-124 187t-183 124.5
t-220.5 46.5t-220.5 -46.5t-183 -124.5t-123.5 -187t-46 -228t46 -228t123.5 -187t183 -124.5t220.5 -46.5t220.5 46.5t183 124.5t124 187t46.5 228zM819 657h-108v-292q0 -66 -68 -66t-68 66v727q0 51 48 51h208q160 0 235 -55t75 -189q0 -124 -73.5 -183t-248.5 -59z
M711 780h94q47 0 76.5 3.5t61.5 15.5t47.5 39.5t15.5 70.5q0 36 -16 60t-46.5 34t-58.5 13.5t-68 3.5h-106v-240z" />
    <glyph glyph-name="lessequal" unicode="&#x2264;" horiz-adv-x="1228" 
d="M1135 453q0 -32 -20.5 -54t-47.5 -22q-20 0 -100 37l-799 399q-40 20 -57 41.5t-17 52.5t17 52.5t57 41.5l799 400q80 37 100 37q27 0 47.5 -22t20.5 -54q0 -15 -5.5 -27.5t-16.5 -22t-20 -15t-24 -13.5l-762 -377l762 -377q21 -11 32 -18t22.5 -23t11.5 -36zM262 565
q-69 37 -100 37q-27 0 -47.5 -22t-20.5 -54q0 -20 11.5 -36t22.5 -23t32 -18l807 -404q69 -37 100 -37q27 0 47.5 22t20.5 54q0 15 -5.5 27.5t-16.5 22t-20 15t-24 13.5z" />
    <glyph glyph-name="greaterequal" unicode="&#x2265;" horiz-adv-x="1228" 
d="M1130 907q0 -31 -16.5 -52.5t-56.5 -41.5l-799 -399q-80 -37 -100 -37q-27 0 -47.5 22t-20.5 54q0 20 11.5 36t22.5 23t32 18l762 377l-762 377q-15 8 -24 13.5t-20 15t-16.5 22t-5.5 27.5q0 32 20.5 54t47.5 22q20 0 100 -37l799 -400q40 -20 56.5 -41.5t16.5 -52.5z
M1130 526q0 -20 -11 -36t-22 -23t-32 -18l-807 -404q-69 -37 -100 -37q-27 0 -47.5 22t-20.5 54q0 15 5.5 27.5t16.5 22t20 15t24 13.5l807 403q69 37 100 37q27 0 47 -22t20 -54z" />
    <glyph glyph-name="nbspace" horiz-adv-x="1024" 
 />
    <glyph glyph-name="hyphenminus" horiz-adv-x="720" 
d="M571 471h-421q-32 0 -55 23t-23 55t23 55t55 23h421q32 0 55 -23t23 -55t-23 -55t-55 -23z" />
    </font>
</defs>
</svg>
